{"glyphs":{"0":{"ha":963,"x_min":61,"x_max":894,"o":"m 125 982 l 830 982 q 854 977 842 982 q 875 963 867 971 q 888 943 883 955 q 894 918 894 930 l 894 65 q 888 39 894 52 q 875 19 883 27 q 854 5 867 11 q 830 0 842 0 l 125 0 q 100 5 111 0 q 79 19 88 11 q 66 39 71 27 q 61 65 61 52 l 61 918 q 66 943 61 930 q 79 963 71 955 q 100 977 88 971 q 125 982 111 982 m 213 876 q 192 868 201 876 q 183 849 183 860 l 183 142 q 192 123 183 132 q 213 115 201 115 l 666 115 q 687 123 678 115 q 696 142 696 132 l 696 404 q 699 429 696 416 q 706 456 701 442 q 718 482 711 469 q 731 508 724 495 q 744 532 738 521 q 755 554 750 544 q 763 572 760 564 q 766 586 766 581 l 766 849 q 758 868 766 860 q 736 876 749 876 l 213 876 z "},"1":{"ha":963,"x_min":336,"x_max":620,"o":"m 369 982 l 507 982 q 517 979 513 982 q 526 972 522 977 q 533 963 530 968 q 536 952 536 958 l 536 225 q 537 216 536 221 q 541 208 538 212 q 546 201 543 203 q 553 198 549 198 l 593 198 q 602 195 597 198 q 611 188 608 193 q 617 178 614 183 q 620 168 620 172 l 620 35 q 616 22 620 28 q 607 12 613 16 q 594 3 601 7 q 581 0 587 0 l 385 0 q 368 3 377 0 q 353 12 359 7 q 341 24 346 18 q 336 39 336 31 l 336 163 q 340 176 336 170 q 349 189 343 183 q 360 199 354 195 q 373 202 366 202 l 406 202 q 415 208 411 202 q 419 221 419 214 l 419 837 q 417 844 419 841 q 413 851 415 848 q 408 857 411 854 q 400 859 404 859 l 362 859 q 353 861 357 859 q 345 866 349 863 q 339 874 342 869 q 336 883 336 879 l 336 956 q 340 966 336 962 q 348 975 343 971 q 358 980 353 978 q 369 982 363 982 z "},"2":{"ha":963,"x_min":62,"x_max":894,"o":"m 95 982 l 834 982 q 855 976 845 982 q 873 960 865 970 q 886 939 882 951 q 891 918 891 928 l 891 532 q 886 509 891 521 q 873 488 882 498 q 854 472 864 479 q 831 465 844 465 l 205 465 q 198 463 201 465 q 193 458 195 461 q 190 452 191 456 q 189 445 189 449 l 189 146 q 191 137 189 142 q 199 128 194 132 q 210 122 203 125 q 220 119 216 119 l 857 119 q 869 117 863 119 q 882 111 876 115 q 890 102 887 107 q 894 92 894 98 l 894 19 q 890 10 894 14 q 882 5 887 7 q 870 1 876 3 q 860 0 864 0 l 113 0 q 95 5 104 0 q 79 17 85 9 q 67 33 72 24 q 62 50 62 42 l 62 537 q 66 553 62 545 q 77 566 71 560 q 91 576 83 572 q 106 581 99 581 l 753 581 q 759 583 755 581 q 765 588 762 585 q 769 595 768 591 q 770 604 770 600 l 770 846 q 768 854 770 850 q 762 860 765 857 q 753 864 758 863 q 745 865 749 865 l 99 865 q 87 867 94 865 q 77 873 81 869 q 68 882 72 878 q 65 892 65 887 l 65 956 q 68 966 65 962 q 75 975 71 971 q 85 980 80 978 q 95 982 90 982 z "},"3":{"ha":963,"x_min":69,"x_max":890,"o":"m 735 982 q 756 979 745 982 q 777 971 768 977 q 793 958 787 966 q 800 940 800 949 l 800 620 q 804 604 800 612 q 814 590 808 597 q 829 576 821 583 q 845 561 837 568 q 861 545 853 553 q 876 529 869 537 q 886 511 882 521 q 890 490 890 500 l 890 58 q 884 37 890 47 q 867 19 878 27 q 846 5 857 11 q 823 0 834 0 l 103 0 q 92 2 98 0 q 81 8 85 4 q 73 17 76 12 q 69 26 69 22 l 69 90 q 73 102 69 96 q 82 112 76 107 q 94 119 88 117 q 107 122 100 122 l 659 122 q 669 123 663 122 q 678 127 674 125 q 685 134 682 130 q 688 142 688 137 l 688 446 q 686 452 688 449 q 682 458 684 456 q 676 463 680 461 q 670 464 673 464 l 115 464 q 100 466 109 464 q 85 471 92 468 q 74 480 79 475 q 69 492 69 486 l 69 552 q 73 564 69 557 q 81 574 76 570 q 92 581 85 578 q 103 583 98 583 l 651 583 q 664 587 658 583 q 675 595 670 590 q 684 606 681 600 q 688 617 688 612 l 688 841 q 684 850 688 846 q 676 859 681 854 q 666 865 671 863 q 655 867 661 867 l 103 867 q 92 868 98 867 q 81 872 87 869 q 73 879 76 875 q 69 888 69 883 l 69 951 q 72 962 69 956 q 79 972 75 967 q 88 979 83 977 q 99 982 94 982 l 735 982 z "},"4":{"ha":963,"x_min":65,"x_max":895,"o":"m 875 3 l 747 3 q 737 4 742 3 q 728 8 732 5 q 722 14 724 11 q 719 22 719 18 l 719 142 q 715 151 719 146 q 707 157 712 155 q 697 162 703 160 q 688 164 692 164 l 133 164 q 109 170 121 164 q 87 184 98 175 q 71 203 77 193 q 65 225 65 214 l 65 948 q 68 961 65 955 q 77 972 72 967 q 88 981 81 978 q 100 985 95 985 l 229 985 q 241 982 235 985 q 251 975 247 979 q 258 964 255 970 q 262 954 262 959 l 262 313 q 265 301 262 307 q 275 291 269 296 q 288 283 281 286 q 301 281 294 281 l 692 281 q 701 283 696 281 q 709 287 705 285 q 716 293 713 289 q 719 301 719 297 l 719 347 q 722 357 719 351 q 728 367 724 362 q 736 374 731 372 q 747 377 742 377 l 871 377 q 880 375 875 377 q 888 370 884 373 q 893 363 891 366 q 895 355 895 359 l 895 28 q 894 20 895 24 q 890 12 892 15 q 883 5 887 8 q 875 3 879 3 z "},"5":{"ha":963,"x_min":62,"x_max":894,"o":"m 861 982 q 872 980 867 982 q 882 975 878 978 q 888 966 886 971 q 891 956 891 962 l 891 892 q 888 882 891 887 q 880 873 884 878 q 869 867 875 869 q 857 865 863 865 l 212 865 q 203 864 208 865 q 195 860 199 863 q 189 854 191 857 q 186 846 186 850 l 186 604 q 188 595 186 600 q 192 588 190 591 q 197 583 194 585 q 205 581 201 581 l 850 581 q 866 576 859 581 q 880 566 873 572 q 890 553 886 560 q 894 537 894 545 l 894 50 q 889 33 894 42 q 878 17 884 24 q 862 5 871 9 q 844 0 853 0 l 98 0 q 86 1 92 0 q 75 5 80 3 q 66 10 71 7 q 62 19 62 14 l 62 92 q 66 102 62 98 q 76 111 71 107 q 87 117 81 115 q 99 119 94 119 l 736 119 q 747 122 742 119 q 758 128 753 125 q 765 137 762 132 q 768 146 768 142 l 768 445 q 767 452 768 449 q 764 458 766 456 q 758 463 761 461 q 753 465 755 465 l 125 465 q 103 472 114 465 q 84 488 92 479 q 71 509 76 498 q 65 532 65 521 l 65 918 q 70 939 65 928 q 83 960 75 951 q 101 976 91 970 q 122 982 111 982 l 861 982 z "},"6":{"ha":963,"x_min":61,"x_max":899,"o":"m 61 913 q 68 938 61 925 q 87 960 76 951 q 113 976 99 970 q 141 982 127 982 l 732 982 q 753 979 742 982 q 774 969 765 975 q 789 954 783 963 q 795 936 795 945 l 795 750 q 793 741 795 746 q 787 732 791 736 q 778 726 783 728 q 769 723 773 723 l 707 723 q 696 726 701 723 q 687 733 692 728 q 680 743 682 738 q 677 753 677 747 l 677 837 q 674 848 677 842 q 667 858 671 853 q 656 865 662 863 q 646 868 651 868 l 180 868 l 180 500 l 836 500 q 858 495 846 500 q 878 481 869 490 q 893 460 887 472 q 899 438 899 449 l 899 56 q 894 36 899 46 q 880 18 888 26 q 862 5 872 11 q 842 0 852 0 l 125 0 q 104 4 115 0 q 83 14 92 8 q 67 29 73 20 q 61 49 61 38 l 61 913 m 178 395 l 178 152 q 181 141 178 146 q 190 132 184 136 q 201 125 195 127 q 214 122 208 122 l 753 122 q 762 125 758 122 q 770 132 766 127 q 777 143 774 137 q 779 153 779 149 l 779 362 q 777 373 779 368 q 772 383 774 378 q 765 391 769 388 q 757 395 761 395 l 178 395 z "},"7":{"ha":963,"x_min":69,"x_max":895,"o":"m 69 928 q 75 948 69 939 q 89 965 80 958 q 109 977 98 972 q 129 982 119 982 l 838 982 q 858 978 848 982 q 876 966 868 974 q 890 949 884 959 q 894 926 895 939 q 892 908 892 917 q 891 890 892 899 q 888 872 890 880 q 882 857 886 864 l 327 53 q 315 35 321 45 q 303 18 309 26 q 289 5 297 11 q 271 0 281 0 l 172 0 q 147 7 155 0 q 136 22 140 14 q 133 42 133 31 q 133 62 133 53 q 133 98 132 80 q 145 132 134 117 l 384 479 q 404 500 392 491 q 428 517 415 510 q 456 531 441 525 q 485 543 471 537 q 513 556 499 549 q 541 570 528 563 q 565 587 553 578 q 585 610 576 597 l 757 868 l 206 868 q 198 866 202 868 q 191 861 194 864 q 184 854 187 859 q 182 846 182 850 l 182 741 q 180 732 182 736 q 176 724 179 728 q 168 718 172 720 q 160 715 164 715 l 96 715 q 87 718 92 715 q 78 725 81 720 q 72 735 75 730 q 69 745 69 741 l 69 928 z "},"8":{"ha":963,"x_min":53,"x_max":905,"o":"m 53 64 l 53 437 q 58 456 53 446 q 73 477 64 467 q 92 498 81 487 q 114 519 103 509 q 136 542 125 530 q 155 566 146 553 q 170 591 164 578 q 175 620 175 605 l 175 924 q 181 945 175 935 q 197 964 187 956 q 218 977 206 972 q 240 982 229 982 l 705 982 q 728 977 716 982 q 750 962 741 971 q 766 941 760 952 q 772 918 772 930 l 772 620 q 778 593 772 606 q 793 568 784 581 q 814 542 803 555 q 839 516 826 529 q 863 489 852 503 q 884 459 875 475 q 899 426 894 444 q 905 389 905 408 l 905 71 q 899 45 905 58 q 882 23 892 33 q 860 7 872 14 q 836 0 848 0 l 129 0 q 103 5 117 0 q 79 20 90 11 q 60 40 68 28 q 53 64 53 52 m 283 472 q 263 464 271 472 q 255 445 255 456 l 255 148 q 263 127 255 136 q 283 119 271 119 l 677 119 q 697 127 689 119 q 705 148 705 136 l 705 445 q 697 464 705 456 q 677 472 689 472 l 283 472 m 321 864 q 309 862 315 864 q 298 855 302 860 q 292 845 294 850 q 289 833 289 840 l 289 617 q 292 605 289 610 q 298 595 294 600 q 309 589 302 591 q 321 586 315 586 l 629 586 q 642 589 636 586 q 652 595 648 591 q 659 605 656 600 q 662 617 662 610 l 662 833 q 659 845 662 840 q 652 855 656 850 q 642 862 648 860 q 629 864 636 864 l 321 864 z "},"9":{"ha":963,"x_min":61,"x_max":899,"o":"m 769 587 l 769 838 q 766 849 769 844 q 757 859 762 854 q 745 866 751 864 q 732 868 739 868 l 212 868 q 202 865 206 868 q 194 858 198 863 q 188 848 190 853 q 186 837 186 842 l 186 620 q 188 609 186 614 q 193 599 190 604 q 199 591 195 594 q 208 587 203 587 l 769 587 m 899 46 q 897 24 899 33 q 890 11 895 16 q 878 3 886 5 q 856 0 869 0 l 732 0 q 720 3 727 0 q 707 12 712 7 q 697 22 701 16 q 693 34 693 28 l 693 437 q 692 446 693 441 q 688 456 690 452 q 682 465 685 461 q 673 468 678 468 l 125 468 q 102 473 114 468 q 82 488 91 479 q 67 508 73 496 q 61 530 61 519 l 61 926 q 66 946 61 936 q 80 964 72 956 q 98 977 88 972 q 119 982 109 982 l 836 982 q 857 979 846 982 q 878 968 868 975 q 893 953 887 962 q 899 935 899 944 l 899 46 z "},"":{"ha":1157,"x_min":3,"x_max":498,"o":"m 3 985 l 498 985 l 498 0 l 3 0 l 3 985 m 90 907 l 90 76 l 411 76 l 411 907 l 90 907 z "}," ":{"ha":610,"x_min":0,"x_max":0,"o":""},"A":{"ha":1010,"x_min":47,"x_max":954,"o":"m 164 982 l 842 982 q 853 979 848 982 q 863 972 859 977 q 869 964 867 968 q 872 954 872 959 l 872 572 q 876 551 872 562 q 884 532 879 541 q 897 515 890 524 q 913 497 905 506 q 928 479 921 488 q 941 460 936 469 q 950 441 947 452 q 954 420 954 431 l 954 34 q 951 22 954 28 q 946 12 949 16 q 938 3 943 7 q 928 0 933 0 l 787 0 q 777 2 783 0 q 767 7 772 4 q 759 16 762 11 q 755 24 755 20 l 755 400 q 753 411 755 406 q 745 420 750 416 q 734 427 741 425 q 723 429 728 429 l 279 429 q 269 427 275 429 q 258 422 263 426 q 250 414 254 419 q 247 404 247 410 l 247 31 q 244 20 247 26 q 236 10 241 15 q 225 3 231 5 q 214 0 220 0 l 81 0 q 70 3 76 0 q 58 9 64 5 q 50 18 53 14 q 47 30 47 23 l 47 412 q 51 435 47 425 q 60 455 54 445 q 74 475 66 465 q 90 494 81 484 q 105 513 98 503 q 119 532 113 522 q 128 552 125 541 q 132 574 132 563 l 132 954 q 134 964 132 959 q 142 974 137 970 q 153 980 148 978 q 164 982 159 982 m 244 846 l 244 557 q 248 549 244 553 q 257 543 252 545 q 268 540 262 541 q 278 538 274 538 l 734 538 q 743 541 738 538 q 751 547 747 543 q 756 555 754 551 q 758 564 758 559 l 758 844 q 755 854 758 849 q 748 865 753 860 q 738 872 743 869 q 727 875 732 875 l 274 875 q 263 872 269 875 q 254 865 258 869 q 247 856 250 861 q 244 846 244 850 z "},"B":{"ha":949,"x_min":61,"x_max":894,"o":"m 115 981 l 739 981 q 759 976 749 981 q 777 964 769 971 q 790 949 785 958 q 795 930 795 940 l 795 576 q 800 555 795 564 q 811 536 804 545 q 827 517 818 526 q 845 500 836 509 q 863 482 854 491 q 879 464 872 473 q 890 444 886 454 q 894 423 894 434 l 894 64 q 888 41 894 53 q 872 20 882 30 q 850 5 863 11 q 826 0 838 0 l 133 0 q 109 4 122 0 q 86 16 96 8 q 68 33 76 23 q 61 54 61 43 l 61 933 q 66 950 61 941 q 79 966 72 959 q 96 977 87 972 q 115 981 106 981 m 193 872 q 183 868 187 872 q 179 859 179 864 l 179 557 q 183 547 179 552 q 193 543 187 543 l 666 543 q 675 547 671 543 q 680 557 680 552 l 680 859 q 675 868 680 864 q 666 872 671 872 l 193 872 m 278 429 q 267 425 271 429 q 263 415 263 422 l 263 132 q 267 122 263 126 q 278 118 271 118 l 762 118 q 772 122 768 118 q 777 132 777 126 l 777 415 q 772 425 777 422 q 762 429 768 429 l 278 429 z "},"C":{"ha":949,"x_min":64,"x_max":901,"o":"m 842 981 q 862 977 852 981 q 881 966 872 972 q 895 951 890 959 q 901 933 901 943 l 901 758 q 898 747 901 753 q 890 736 895 742 q 880 728 886 731 q 869 726 875 726 l 730 726 q 718 728 724 726 q 707 735 712 731 q 699 745 703 739 q 696 757 696 751 l 696 848 q 694 859 696 853 q 688 869 692 864 q 678 876 684 873 q 667 879 673 879 l 214 879 q 204 876 209 879 q 196 867 199 872 q 191 857 193 863 q 189 846 189 850 l 189 574 q 192 565 189 571 q 201 550 195 559 q 213 531 206 541 q 227 509 220 521 q 241 484 235 498 q 254 456 248 471 q 262 427 259 442 q 266 396 266 411 l 266 142 q 269 127 266 133 q 275 119 271 122 q 284 115 279 115 q 294 114 289 114 l 755 114 q 766 117 761 114 q 775 125 772 121 q 781 136 779 130 q 783 148 783 142 l 783 338 q 785 350 783 343 q 793 361 788 357 q 803 370 798 366 q 814 373 808 373 l 865 373 q 877 370 871 373 q 887 361 883 366 q 894 349 891 355 q 897 336 897 342 l 897 60 q 891 39 897 50 q 877 20 886 28 q 858 5 868 11 q 837 0 848 0 l 125 0 q 104 5 115 0 q 83 18 92 9 q 69 36 75 26 q 64 56 64 46 l 64 926 q 68 945 64 936 q 81 963 73 955 q 100 976 90 971 q 119 981 110 981 l 842 981 z "},"D":{"ha":970,"x_min":64,"x_max":897,"o":"m 136 981 l 812 981 q 836 973 821 981 q 864 954 850 966 q 887 930 878 943 q 897 907 897 918 l 897 72 q 888 45 897 58 q 868 22 880 33 q 840 6 856 12 q 810 0 825 0 l 136 0 q 108 5 121 0 q 85 21 95 11 q 70 44 76 31 q 64 72 64 57 l 64 907 q 80 962 64 943 q 136 981 96 981 m 187 841 l 187 585 q 191 568 187 578 q 199 549 194 559 q 212 527 205 538 q 226 503 218 515 q 241 477 233 490 q 254 450 248 464 q 262 424 259 437 q 266 397 266 411 l 266 142 q 269 130 266 137 q 275 117 271 123 q 286 107 279 111 q 298 103 292 103 l 738 103 q 753 109 746 103 q 765 121 760 114 q 774 136 770 127 q 777 153 777 145 l 777 850 q 774 860 777 854 q 766 869 770 865 q 755 874 761 872 q 743 876 749 876 l 218 876 q 206 873 212 876 q 197 865 201 871 q 190 854 193 860 q 187 841 187 848 z "},"E":{"ha":753,"x_min":64,"x_max":703,"o":"m 64 930 q 68 949 64 940 q 81 966 73 959 q 98 978 88 974 q 117 982 107 982 l 658 982 q 668 981 662 982 q 680 977 674 979 q 688 971 685 975 q 692 962 692 967 l 692 902 q 689 891 692 897 q 682 882 686 886 q 671 875 677 878 q 659 872 665 872 l 199 872 q 192 871 195 872 q 186 866 189 869 q 181 859 183 863 q 179 852 179 856 l 179 564 q 181 556 179 560 q 186 549 183 552 q 194 543 190 545 q 202 541 198 541 l 659 541 q 670 539 665 541 q 680 534 675 537 q 687 528 684 532 q 690 518 690 524 l 690 467 q 688 455 690 461 q 680 444 685 449 q 670 436 675 439 q 659 433 665 433 l 271 433 q 262 431 267 433 q 254 425 258 429 q 249 417 251 422 q 247 408 247 412 l 247 137 q 249 129 247 133 q 255 122 251 125 q 263 118 259 119 q 271 117 267 117 l 666 117 q 677 115 671 117 q 689 110 684 113 q 699 103 694 107 q 703 94 703 99 l 703 23 q 701 15 703 19 q 696 7 699 11 q 690 2 693 4 q 682 0 686 0 l 117 0 q 99 3 109 0 q 81 12 90 7 q 68 25 73 18 q 64 42 64 33 l 64 930 z "},"F":{"ha":726,"x_min":64,"x_max":692,"o":"m 64 930 q 68 949 64 940 q 81 966 73 959 q 98 978 88 974 q 117 982 107 982 l 658 982 q 668 981 662 982 q 680 977 674 979 q 688 971 685 975 q 692 962 692 967 l 692 902 q 689 891 692 897 q 682 882 686 886 q 671 875 677 878 q 659 872 665 872 l 199 872 q 192 871 195 872 q 186 866 189 869 q 181 859 183 863 q 179 852 179 856 l 179 564 q 181 556 179 560 q 186 549 183 552 q 194 543 190 545 q 202 541 198 541 l 659 541 q 670 539 665 541 q 680 534 675 537 q 687 528 684 532 q 690 518 690 524 l 690 467 q 688 455 690 461 q 680 444 685 449 q 670 436 675 439 q 659 433 665 433 l 271 433 q 262 431 267 433 q 254 425 258 429 q 249 417 251 422 q 247 408 247 412 l 247 43 q 243 29 247 37 q 235 15 240 22 q 224 4 231 8 q 210 0 217 0 l 117 0 q 99 3 109 0 q 81 12 90 7 q 68 25 73 18 q 64 42 64 33 l 64 930 z "},"G":{"ha":949,"x_min":64,"x_max":901,"o":"m 842 981 q 862 977 852 981 q 881 966 872 972 q 895 951 890 959 q 901 933 901 943 l 901 758 q 898 747 901 753 q 890 736 895 742 q 880 728 886 731 q 869 726 875 726 l 806 726 q 794 728 800 726 q 783 735 788 731 q 776 745 779 739 q 773 757 773 751 l 773 848 q 770 859 773 853 q 764 869 768 864 q 754 876 760 873 q 743 879 749 879 l 214 879 q 204 876 209 879 q 196 867 199 872 q 191 857 193 863 q 189 846 189 850 l 189 574 q 192 565 189 571 q 201 550 195 559 q 213 531 206 541 q 227 509 220 521 q 241 484 235 498 q 254 456 248 471 q 262 427 259 442 q 266 396 266 411 l 266 142 q 269 127 266 133 q 275 119 271 122 q 284 115 279 115 q 294 114 289 114 l 755 114 q 766 117 761 114 q 775 125 772 121 q 781 136 779 130 q 783 148 783 142 l 783 305 q 779 316 783 311 q 770 326 776 321 q 758 334 765 331 q 746 336 751 336 l 587 336 q 576 338 582 336 q 566 344 571 340 q 559 351 562 347 q 556 361 556 355 l 556 419 q 559 431 556 425 q 566 442 562 437 q 576 451 570 448 q 587 454 582 454 l 865 454 q 877 451 871 454 q 887 441 883 448 q 894 429 891 435 q 897 416 897 423 l 897 60 q 891 39 897 50 q 877 20 886 28 q 858 5 868 11 q 837 0 848 0 l 125 0 q 104 5 115 0 q 83 18 92 9 q 69 36 75 26 q 64 56 64 46 l 64 926 q 68 945 64 936 q 81 963 73 955 q 100 976 90 971 q 119 981 110 981 l 842 981 z "},"H":{"ha":1010,"x_min":49,"x_max":952,"o":"m 214 981 q 224 979 218 981 q 235 973 231 977 q 243 965 240 970 q 247 956 247 960 l 247 560 q 249 552 247 556 q 254 545 251 548 q 262 539 258 541 q 270 537 266 537 l 734 537 q 742 540 738 537 q 749 547 746 543 q 754 556 753 551 q 755 566 755 562 l 755 956 q 758 965 755 960 q 764 974 761 970 q 772 980 768 978 q 781 982 776 982 l 846 982 q 856 979 852 982 q 863 972 860 977 q 869 964 867 968 q 872 954 872 959 l 872 600 q 876 575 872 587 q 884 552 879 563 q 897 530 890 541 q 912 509 905 519 q 927 487 920 498 q 940 465 935 476 q 949 443 945 454 q 952 419 952 431 l 952 27 q 949 17 952 22 q 943 9 947 12 q 933 3 939 5 q 924 0 928 0 l 791 0 q 779 3 785 0 q 768 9 773 5 q 759 18 762 14 q 755 30 755 23 l 755 407 q 753 415 755 411 q 747 422 751 419 q 739 427 743 426 q 730 429 734 429 l 275 429 q 264 427 270 429 q 255 421 259 425 q 248 412 251 418 q 244 403 244 407 l 244 23 q 242 15 244 19 q 236 7 240 11 q 227 2 232 4 q 218 0 222 0 l 80 0 q 69 3 75 0 q 59 9 64 5 q 52 19 54 14 q 49 30 49 24 l 49 416 q 52 441 49 429 q 62 465 56 453 q 75 489 68 477 q 90 511 83 500 q 105 533 98 522 q 119 554 113 544 q 128 574 125 564 q 132 591 132 583 l 132 958 q 134 966 132 962 q 139 973 136 970 q 146 979 142 977 q 155 981 151 981 l 214 981 z "},"I":{"ha":326,"x_min":77,"x_max":278,"o":"m 109 981 l 183 981 q 192 979 187 981 q 200 972 197 977 q 205 964 203 968 q 208 956 208 960 l 208 597 q 210 567 208 581 q 218 542 213 553 q 230 519 224 530 q 243 498 236 509 q 256 479 250 488 q 267 459 262 469 q 275 438 271 449 q 278 415 278 427 l 278 30 q 275 19 278 24 q 269 9 273 14 q 259 3 264 5 q 250 0 254 0 l 109 0 q 99 2 104 0 q 89 7 94 4 q 81 14 84 9 q 77 23 77 18 l 77 951 q 81 962 77 956 q 88 971 84 967 q 98 978 92 975 q 109 981 103 981 z "},"J":{"ha":852,"x_min":47,"x_max":783,"o":"m 751 981 q 768 976 762 981 q 777 963 773 971 q 781 945 780 955 q 783 926 783 936 l 783 56 q 777 36 783 46 q 762 18 772 26 q 742 5 753 9 q 722 0 731 0 l 107 0 q 85 5 96 0 q 66 20 75 11 q 53 39 58 28 q 47 60 47 50 l 47 336 q 50 349 47 342 q 56 361 52 355 q 66 370 61 366 q 77 373 72 373 l 129 373 q 141 370 136 373 q 151 361 146 366 q 157 350 155 357 q 160 338 160 343 l 160 148 q 163 136 160 142 q 169 125 165 130 q 177 117 172 121 q 187 114 182 114 l 552 114 q 562 115 557 114 q 571 119 567 115 q 578 127 575 122 q 581 142 581 133 l 581 396 q 584 427 581 411 q 593 456 587 442 q 605 484 598 471 q 619 509 612 496 q 633 531 627 521 q 646 550 640 541 q 654 565 651 559 q 656 574 656 571 l 656 930 q 659 949 656 940 q 664 964 661 958 q 673 976 667 971 q 686 981 678 981 l 751 981 z "},"K":{"ha":936,"x_min":49,"x_max":868,"o":"m 220 982 q 229 980 224 982 q 237 975 233 978 q 242 966 240 971 q 244 958 244 962 l 244 562 q 248 553 244 557 q 258 547 252 549 q 269 543 263 544 q 279 541 275 541 l 707 541 q 724 545 715 541 q 742 553 734 548 q 755 566 750 559 q 761 582 761 574 l 761 954 q 762 962 761 958 q 767 971 764 967 q 774 978 770 975 q 783 981 779 981 l 841 981 q 851 977 846 981 q 859 969 856 974 q 865 958 863 964 q 868 947 868 952 l 868 560 q 862 536 868 548 q 846 516 856 525 q 825 501 837 507 q 799 495 812 495 q 827 489 815 495 q 848 473 840 483 q 861 452 857 464 q 865 427 865 439 l 865 31 q 863 21 865 27 q 859 11 861 15 q 852 3 856 7 q 842 0 848 0 l 785 0 q 775 3 780 0 q 768 11 770 7 q 763 20 765 15 q 761 31 761 26 l 761 389 q 756 406 761 397 q 745 420 751 414 q 730 431 738 427 q 713 435 722 435 l 279 435 q 268 432 274 435 q 256 424 262 429 q 248 413 251 419 q 244 400 244 407 l 244 34 q 243 22 244 28 q 239 12 241 16 q 231 3 236 7 q 222 0 227 0 l 81 0 q 70 3 76 0 q 59 12 64 7 q 52 22 54 16 q 49 34 49 27 l 49 411 q 52 435 49 423 q 62 458 56 446 q 75 480 68 469 q 90 503 83 491 q 105 525 98 514 q 119 547 113 536 q 128 570 125 559 q 132 595 132 582 l 132 954 q 133 963 132 958 q 137 972 134 968 q 144 979 140 977 q 152 982 148 982 l 220 982 z "},"L":{"ha":800,"x_min":49,"x_max":769,"o":"m 155 981 l 227 981 q 235 979 231 981 q 243 973 239 977 q 249 966 247 970 q 251 958 251 962 l 251 133 q 253 125 251 129 q 258 119 255 122 q 264 114 260 115 q 271 113 269 113 l 738 113 q 749 110 743 113 q 758 103 754 107 q 766 94 762 99 q 769 83 769 88 l 769 23 q 767 15 769 19 q 762 7 765 11 q 754 2 758 4 q 746 0 750 0 l 88 0 q 75 2 81 0 q 62 8 68 4 q 53 18 57 12 q 49 30 49 23 l 49 408 q 52 433 49 420 q 61 459 56 446 q 74 484 66 472 q 89 509 81 496 q 104 532 96 521 q 117 553 111 543 q 125 572 122 563 q 129 589 129 582 l 129 954 q 132 962 129 958 q 138 971 134 967 q 145 978 141 975 q 155 981 149 981 z "},"M":{"ha":1092,"x_min":61,"x_max":1023,"o":"m 61 31 l 61 929 q 67 948 61 939 q 82 964 73 958 q 102 976 91 971 q 123 981 113 981 l 500 981 q 523 977 511 981 q 543 966 534 974 q 558 948 552 959 q 564 922 564 937 q 570 948 564 937 q 585 966 576 959 q 605 977 594 974 q 627 981 616 981 l 971 981 q 989 976 979 981 q 1006 964 998 971 q 1018 949 1013 958 q 1023 930 1023 940 l 1023 31 q 1021 22 1023 27 q 1017 12 1020 16 q 1011 3 1015 7 q 1004 0 1008 0 l 949 0 q 941 2 945 0 q 933 8 937 4 q 927 16 929 12 q 925 24 925 20 l 925 841 q 924 852 925 846 q 919 862 922 857 q 911 869 916 867 q 902 872 907 872 l 670 872 q 652 867 661 872 q 635 854 643 863 q 624 836 628 846 q 620 817 620 826 l 620 30 q 618 20 620 24 q 613 10 616 15 q 606 3 610 5 q 597 0 602 0 l 541 0 q 530 3 536 0 q 518 10 524 5 q 510 20 513 15 q 507 31 507 26 l 507 819 q 503 837 507 827 q 491 854 498 846 q 475 867 484 863 q 457 872 467 872 l 210 872 q 198 869 203 872 q 188 861 193 867 q 180 850 183 856 q 176 837 176 844 l 176 604 q 180 578 176 590 q 190 555 184 567 q 203 532 195 544 q 219 510 212 521 q 234 488 227 499 q 248 465 241 476 q 258 441 254 453 q 262 416 262 430 l 262 34 q 258 21 262 27 q 248 10 254 15 q 235 3 243 5 q 222 0 228 0 l 92 0 q 81 3 87 0 q 71 10 76 5 q 64 20 66 15 q 61 31 61 26 z "},"N":{"ha":970,"x_min":64,"x_max":897,"o":"m 64 941 q 65 954 64 947 q 71 968 66 962 q 79 978 75 974 q 90 982 84 982 l 156 982 q 179 977 167 982 q 198 964 191 972 l 777 153 l 777 943 q 779 956 777 949 q 785 967 781 962 q 793 977 788 972 q 803 981 798 981 l 865 981 q 878 977 872 981 q 887 966 883 972 q 894 953 891 960 q 897 939 897 945 l 897 56 q 895 39 897 49 q 890 20 894 28 q 882 6 887 12 q 869 0 878 0 l 791 0 q 758 9 774 0 q 731 31 742 18 l 171 785 l 171 605 q 174 580 171 593 q 184 555 178 567 q 197 532 190 544 q 213 509 205 521 q 229 486 221 498 q 242 463 236 475 q 252 438 248 450 q 255 412 255 426 l 255 30 q 252 18 255 23 q 243 9 248 14 q 232 3 239 5 q 220 0 225 0 l 96 0 q 85 3 91 0 q 74 9 79 5 q 66 19 69 14 q 64 30 64 24 l 64 941 z "},"O":{"ha":970,"x_min":61,"x_max":897,"o":"m 132 981 l 826 981 q 854 975 841 981 q 876 960 867 970 q 891 938 886 951 q 897 910 897 925 l 897 71 q 891 43 897 56 q 876 20 886 30 q 854 5 867 11 q 826 0 841 0 l 132 0 q 104 5 117 0 q 81 20 91 11 q 66 43 72 30 q 61 71 61 56 l 61 910 q 66 938 61 925 q 81 960 72 951 q 104 975 91 970 q 132 981 117 981 m 236 879 q 210 876 220 879 q 195 867 201 873 q 189 850 190 861 q 187 823 187 840 l 187 170 q 189 138 187 149 q 197 122 191 127 q 212 115 203 117 q 236 114 221 114 l 667 114 q 684 115 678 114 q 693 121 690 117 q 697 132 696 125 q 699 149 699 138 l 699 407 q 701 431 699 418 q 709 456 704 444 q 721 481 715 468 q 733 506 727 494 q 746 529 739 518 q 758 548 753 540 q 765 563 762 556 q 768 572 768 570 l 768 823 q 767 852 768 841 q 762 869 766 863 q 748 877 758 875 q 719 879 738 879 l 236 879 z "},"P":{"ha":943,"x_min":64,"x_max":890,"o":"m 64 929 q 68 948 64 939 q 81 965 73 958 q 98 977 88 972 q 117 982 107 982 l 837 982 q 856 978 846 982 q 873 967 865 974 q 885 951 880 960 q 890 933 890 941 l 890 486 q 885 466 890 476 q 873 448 880 456 q 856 436 865 441 q 837 431 846 431 l 286 431 q 277 429 282 431 q 269 423 273 427 q 264 415 266 419 q 262 407 262 411 l 262 43 q 258 29 262 37 q 250 15 255 22 q 239 4 245 8 q 227 0 233 0 l 107 0 q 91 5 99 0 q 77 16 83 9 q 67 31 71 23 q 64 47 64 39 l 64 929 m 212 871 q 205 869 209 871 q 198 865 201 867 q 193 859 195 863 q 191 852 191 856 l 191 552 q 197 541 191 545 q 210 537 203 537 l 754 537 q 765 543 760 537 q 770 553 770 548 l 770 852 q 769 859 770 856 q 765 864 768 861 q 759 869 762 867 q 751 871 755 871 l 212 871 z "},"Q":{"ha":970,"x_min":65,"x_max":894,"o":"m 189 846 l 189 141 q 191 132 189 137 q 197 123 194 127 q 205 117 201 119 q 216 115 210 115 l 442 115 q 463 119 454 115 q 480 130 472 123 q 496 144 488 136 q 512 160 505 152 q 528 176 519 168 q 548 191 537 184 q 572 201 559 198 q 601 205 585 205 l 747 205 q 755 207 751 205 q 761 212 758 209 q 765 219 764 216 q 766 227 766 222 l 766 852 q 764 862 766 857 q 756 871 761 867 q 746 877 751 875 q 735 879 741 879 l 218 879 q 208 876 213 879 q 198 867 202 872 q 191 857 194 863 q 189 846 189 852 m 119 981 l 842 981 q 861 976 852 981 q 878 964 871 971 q 889 947 884 956 q 894 929 894 937 l 894 58 q 889 39 894 49 q 876 20 884 28 q 859 7 868 12 q 838 3 849 3 l 791 3 q 781 1 787 3 q 772 -5 776 -1 q 765 -15 768 -9 q 762 -26 762 -20 l 762 -65 q 760 -76 762 -71 q 755 -85 758 -81 q 747 -93 751 -90 q 738 -96 743 -96 l 579 -96 q 568 -94 574 -96 q 558 -87 563 -91 q 551 -79 553 -84 q 548 -69 548 -75 l 548 -26 q 545 -16 548 -20 q 538 -7 543 -11 q 529 -1 534 -3 q 519 0 524 0 l 123 0 q 102 5 113 0 q 84 20 92 11 q 71 39 76 28 q 65 60 65 50 l 65 929 q 71 947 65 939 q 83 964 76 956 q 100 976 91 971 q 119 981 110 981 z "},"R":{"ha":956,"x_min":61,"x_max":901,"o":"m 61 34 l 61 929 q 65 947 61 937 q 76 964 69 956 q 92 976 83 971 q 109 981 100 981 l 719 981 q 739 976 728 981 q 759 964 750 971 q 773 946 768 956 q 779 926 779 936 l 779 585 q 784 569 779 575 q 798 559 789 563 q 818 552 807 555 q 840 546 829 549 q 863 538 852 543 q 882 527 873 534 q 895 509 890 519 q 901 483 901 499 l 901 27 q 899 18 901 23 q 896 9 898 14 q 891 3 894 5 q 884 0 888 0 l 821 0 q 810 2 815 0 q 801 7 806 4 q 793 16 796 11 q 791 24 791 20 l 791 407 q 787 418 791 412 q 777 429 783 425 q 764 435 770 433 q 750 437 757 437 l 300 437 q 288 434 294 437 q 275 427 281 431 q 265 417 269 423 q 262 404 262 411 l 262 30 q 258 19 262 24 q 250 9 255 14 q 239 3 245 5 q 228 0 233 0 l 96 0 q 84 3 91 0 q 73 10 77 5 q 64 21 68 15 q 61 34 61 27 m 202 860 q 189 854 194 860 q 183 842 183 849 l 183 578 q 189 566 183 571 q 202 560 194 560 l 640 560 q 654 566 648 560 q 659 578 659 571 l 659 842 q 654 854 659 849 q 640 860 648 860 l 202 860 z "},"S":{"ha":929,"x_min":47,"x_max":876,"o":"m 49 910 q 55 935 49 922 q 70 957 61 947 q 91 974 79 967 q 115 981 103 981 l 814 981 q 836 976 825 981 q 855 963 846 971 q 870 945 864 955 q 876 925 876 935 l 876 750 q 874 742 876 746 q 869 734 872 738 q 863 728 867 730 q 854 726 859 726 l 779 726 q 770 728 774 726 q 762 734 766 730 q 756 742 758 738 q 754 750 754 746 l 754 848 q 751 858 754 853 q 745 866 749 863 q 735 872 741 869 q 726 875 730 875 l 193 875 q 184 872 189 875 q 177 865 180 869 q 172 855 174 860 q 171 846 171 850 l 171 560 q 176 550 171 555 q 187 545 182 545 l 814 545 q 836 540 825 545 q 855 526 846 534 q 870 505 864 517 q 876 483 876 494 l 876 58 q 871 38 876 49 q 858 19 865 27 q 840 5 850 11 q 821 0 830 0 l 119 0 q 94 5 107 0 q 71 20 81 11 q 54 41 60 30 q 47 64 47 53 l 47 231 q 50 241 47 236 q 57 252 53 247 q 66 260 61 258 q 77 263 72 263 l 140 263 q 151 261 145 263 q 160 255 156 259 q 168 246 164 251 q 171 236 171 241 l 171 137 q 173 128 171 133 q 178 120 175 123 q 184 115 180 117 q 193 113 189 113 l 655 113 q 663 114 659 113 q 671 119 667 115 q 676 125 674 122 q 678 133 678 129 l 678 412 q 676 420 678 416 q 671 427 674 423 q 665 431 669 430 q 658 433 661 433 l 113 433 q 91 438 102 433 q 71 451 80 444 q 55 469 61 458 q 49 490 49 479 l 49 910 z "},"T":{"ha":895,"x_min":24,"x_max":868,"o":"m 53 982 l 817 982 q 833 979 825 982 q 850 969 842 975 q 863 956 857 963 q 868 939 868 948 l 868 812 q 864 799 868 806 q 853 787 860 792 q 839 779 846 781 q 825 776 831 776 l 552 776 q 537 773 545 776 q 522 766 529 770 q 511 757 515 762 q 507 745 507 751 l 507 35 q 505 24 507 30 q 500 12 503 18 q 492 3 496 7 q 481 0 487 0 l 412 0 q 400 3 406 0 q 391 12 395 7 q 384 24 387 18 q 381 35 381 30 l 381 844 q 378 857 381 850 q 370 870 374 864 q 359 880 365 876 q 346 883 353 883 l 53 883 q 43 885 49 883 q 34 890 38 887 q 27 897 30 892 q 24 906 24 901 l 24 958 q 27 967 24 963 q 34 975 30 971 q 43 980 38 978 q 53 982 49 982 z "},"U":{"ha":970,"x_min":61,"x_max":901,"o":"m 61 951 q 64 962 61 956 q 70 972 66 967 q 78 979 73 977 q 88 982 83 982 l 168 982 q 176 980 172 982 q 183 974 180 978 q 188 966 186 970 q 190 958 190 962 l 190 551 q 193 541 190 547 q 199 528 195 534 q 210 513 203 521 q 222 496 216 505 q 233 477 228 487 q 243 458 239 468 q 251 437 248 448 q 254 416 254 427 l 254 149 q 256 138 254 144 q 263 128 259 133 q 273 121 267 123 q 285 118 278 118 l 749 118 q 757 120 753 118 q 764 126 761 122 q 770 134 768 130 q 773 142 773 138 l 773 959 q 775 968 773 964 q 781 975 777 971 q 789 980 784 978 q 798 982 793 982 l 868 982 q 878 981 872 982 q 889 977 884 979 q 897 970 894 974 q 901 962 901 967 l 901 71 q 897 47 901 60 q 885 25 892 35 q 867 9 878 15 q 846 3 857 3 l 134 3 q 109 7 122 3 q 86 18 96 11 q 68 36 76 26 q 61 58 61 46 l 61 951 z "},"V":{"ha":852,"x_min":5,"x_max":836,"o":"m 90 981 q 102 978 96 981 q 113 970 107 975 q 121 960 118 966 q 127 949 125 955 l 420 141 l 715 945 q 720 957 716 951 q 727 968 723 963 q 736 977 731 974 q 746 981 741 981 l 810 981 q 818 978 814 981 q 825 970 822 975 q 831 961 829 966 q 834 951 833 956 q 833 943 836 948 q 829 935 830 939 l 509 47 q 503 33 506 41 q 495 17 499 24 q 485 5 491 9 q 472 0 479 0 l 377 0 q 364 3 370 0 q 353 12 358 7 q 344 23 347 16 q 338 35 340 30 l 14 926 q 9 940 12 933 q 8 954 5 947 q 12 962 9 958 q 16 971 14 967 q 22 978 19 975 q 30 981 26 981 l 90 981 z "},"W":{"ha":1092,"x_min":61,"x_max":1023,"o":"m 1023 949 l 1023 52 q 1017 33 1023 42 q 1001 16 1010 23 q 981 5 991 9 q 960 0 970 0 l 625 0 q 603 3 614 0 q 583 14 591 7 q 568 33 574 22 q 562 58 562 43 q 555 33 562 43 q 541 14 549 22 q 521 3 532 7 q 499 0 510 0 l 113 0 q 95 5 104 0 q 78 16 85 9 q 66 32 71 23 q 61 50 61 41 l 61 949 q 62 959 61 954 q 66 969 64 964 q 72 977 68 974 q 80 981 76 981 l 157 981 q 166 978 161 981 q 174 972 171 975 q 180 964 178 968 q 182 956 182 960 l 182 551 q 185 529 182 540 q 195 507 189 518 q 209 486 201 496 q 224 463 217 475 q 239 440 232 452 q 253 416 247 429 q 263 392 259 404 q 267 368 267 380 l 267 140 q 269 129 267 134 q 273 119 270 123 q 281 111 277 114 q 290 109 285 109 l 456 109 q 474 113 465 109 q 490 127 483 118 q 502 145 498 136 q 506 164 506 155 l 506 951 q 508 961 506 956 q 513 970 510 966 q 519 978 515 975 q 529 981 524 981 l 585 981 q 596 978 590 981 q 608 970 602 975 q 616 960 613 966 q 618 949 618 955 l 618 161 q 623 144 618 153 q 635 126 628 134 q 650 113 642 118 q 669 109 659 109 l 873 109 q 884 112 879 109 q 894 121 890 115 q 900 133 898 126 q 902 145 902 140 l 902 951 q 905 970 902 964 q 911 979 907 977 q 919 981 916 981 q 925 981 922 981 l 991 981 q 1002 978 997 981 q 1012 970 1008 975 q 1019 960 1016 966 q 1023 949 1023 955 z "},"X":{"ha":922,"x_min":33,"x_max":882,"o":"m 33 949 q 35 961 33 955 q 41 972 37 967 q 50 979 45 977 q 61 982 56 982 l 130 982 q 138 980 134 982 q 146 975 142 978 q 151 966 149 971 q 153 958 153 962 l 153 833 q 159 814 153 823 q 171 799 164 806 l 456 563 l 640 734 q 658 751 650 742 q 672 772 666 761 q 682 794 678 783 q 686 818 686 806 l 686 945 q 690 958 686 952 q 699 970 693 964 q 710 979 704 975 q 723 982 716 982 l 838 982 q 852 980 845 982 q 866 973 860 978 q 877 962 872 968 q 882 949 882 956 l 882 845 q 877 818 882 831 q 863 795 872 804 l 538 490 l 854 227 q 863 219 859 224 q 872 209 868 214 q 879 197 876 203 q 882 186 882 191 l 882 28 q 880 19 882 24 q 874 9 878 14 q 866 3 871 5 q 856 0 861 0 l 781 0 q 770 3 776 0 q 760 12 765 7 q 753 23 755 16 q 750 35 750 30 l 750 148 q 746 165 750 156 q 736 179 742 174 l 456 418 l 259 227 q 243 207 250 218 q 237 183 237 195 l 237 28 q 235 18 237 23 q 227 9 232 14 q 217 2 222 4 q 206 0 212 0 l 69 0 q 57 3 64 0 q 45 10 50 5 q 36 21 39 15 q 33 33 33 27 l 33 133 q 38 158 33 145 q 53 179 43 171 l 373 484 l 52 764 q 39 776 45 769 q 33 791 33 783 l 33 949 z "},"Y":{"ha":888,"x_min":33,"x_max":848,"o":"m 33 947 q 35 959 33 952 q 40 970 37 966 q 49 979 43 975 q 60 982 54 982 l 122 982 q 131 979 126 982 q 138 970 136 975 q 142 958 141 964 q 144 947 144 952 l 144 585 q 146 576 144 581 q 151 568 148 571 q 157 562 153 564 q 165 559 161 559 l 715 559 q 723 561 719 559 q 730 566 727 563 q 736 572 734 568 q 738 581 738 576 l 738 958 q 740 966 738 962 q 745 973 742 970 q 751 979 747 977 q 760 981 755 981 l 823 981 q 833 978 829 981 q 840 970 837 975 q 846 960 844 966 q 848 949 848 955 l 848 507 q 843 486 848 496 q 829 467 838 476 q 810 454 821 458 q 789 449 800 449 l 557 449 q 550 446 553 449 q 543 440 547 444 q 538 433 540 437 q 537 426 537 430 l 537 31 q 534 20 537 26 q 527 9 532 14 q 517 3 522 5 q 506 0 511 0 l 377 0 q 364 3 370 0 q 354 12 358 7 q 347 24 350 18 q 343 37 343 31 l 343 419 q 340 430 343 425 q 334 439 338 435 q 325 446 330 444 q 315 449 320 449 l 104 449 q 81 453 94 449 q 57 465 68 457 q 39 484 46 473 q 33 505 33 494 l 33 947 z "},"Z":{"ha":902,"x_min":33,"x_max":867,"o":"m 33 945 q 36 957 33 951 q 45 968 39 963 q 57 975 50 972 q 69 978 64 978 l 803 978 q 824 976 812 978 q 846 968 836 974 q 861 956 856 963 q 865 937 867 948 q 864 923 864 930 q 864 907 864 916 q 862 892 864 899 q 856 880 860 886 l 178 110 l 732 110 q 743 115 738 110 q 749 127 749 121 l 749 237 q 750 245 749 241 q 754 252 751 248 q 760 256 757 255 q 768 258 764 258 l 838 258 q 846 256 842 258 q 851 250 849 254 q 854 241 853 245 q 856 233 856 237 l 856 41 q 853 27 856 34 q 846 14 850 20 q 834 4 841 8 q 821 0 827 0 l 91 0 q 71 4 81 0 q 52 15 60 8 q 38 31 43 22 q 33 50 33 41 l 33 190 q 33 204 33 197 q 35 219 33 212 q 39 233 37 227 q 47 245 42 240 l 326 548 q 343 563 332 556 q 366 575 354 570 q 392 585 378 581 q 420 595 406 590 q 448 605 434 600 q 476 617 463 610 q 501 632 490 624 q 522 651 513 640 l 719 872 l 165 872 q 153 868 159 872 q 146 857 146 864 l 146 765 q 145 755 146 761 q 142 745 144 750 q 136 737 140 741 q 127 734 132 734 l 56 734 q 47 736 52 734 q 39 743 42 739 q 35 751 37 746 q 33 760 33 755 l 33 945 z "},"a":{"ha":719,"x_min":52,"x_max":727,"o":"m 52 404 q 57 425 52 415 q 71 441 62 434 q 90 453 80 449 q 110 457 100 457 l 519 457 q 529 461 525 457 q 533 471 533 465 l 533 551 q 526 561 533 556 q 514 566 519 566 l 79 566 q 70 567 75 566 q 61 572 65 568 q 54 578 57 575 q 52 586 52 582 l 52 650 q 54 659 52 654 q 61 667 57 663 q 71 673 65 670 q 80 675 76 675 l 595 675 q 612 671 604 675 q 629 659 621 666 q 640 642 636 651 q 644 625 644 633 l 644 142 q 646 132 644 137 q 651 123 648 127 q 657 117 654 119 q 666 115 661 115 l 700 115 q 709 113 704 115 q 718 108 713 111 q 724 100 722 104 q 727 92 727 96 l 727 27 q 724 17 727 22 q 715 8 720 12 q 703 2 709 4 q 692 0 697 0 l 111 0 q 91 5 102 0 q 71 17 80 9 q 57 35 62 24 q 52 54 52 45 l 52 404 m 270 346 q 256 340 262 346 q 250 326 250 334 l 250 140 q 256 125 250 132 q 270 119 262 119 l 511 119 q 526 125 519 119 q 532 140 532 132 l 532 326 q 526 340 532 334 q 511 346 519 346 l 270 346 z "},"b":{"ha":743,"x_min":58,"x_max":681,"o":"m 58 951 q 61 962 58 956 q 68 971 64 967 q 79 978 73 975 q 90 981 84 981 l 155 981 q 163 979 159 981 q 172 974 168 977 q 179 967 176 971 q 182 958 182 963 l 182 648 q 219 667 198 659 q 260 674 240 674 l 629 674 q 647 670 637 674 q 664 659 656 666 q 676 643 671 651 q 681 625 681 635 l 681 62 q 675 40 681 52 q 661 20 670 28 q 642 5 652 11 q 620 0 631 0 l 129 0 q 104 5 117 0 q 82 17 92 9 q 65 35 72 24 q 58 57 58 46 l 58 951 m 292 562 q 273 553 281 562 q 264 534 264 545 l 264 140 q 273 119 264 127 q 292 111 281 111 l 524 111 q 544 119 536 111 q 552 140 552 127 l 552 534 q 544 553 552 545 q 524 562 536 562 l 292 562 z "},"c":{"ha":726,"x_min":58,"x_max":673,"o":"m 58 608 q 62 630 58 618 q 74 651 66 642 q 91 667 81 661 q 111 674 100 674 l 620 674 q 637 670 628 674 q 655 660 647 666 q 668 646 663 654 q 673 629 673 637 l 673 511 q 669 499 673 505 q 661 489 666 494 q 650 481 656 484 q 637 477 644 477 l 491 477 q 479 479 486 477 q 468 484 473 481 q 458 491 463 487 q 454 500 454 495 l 454 547 q 453 553 454 551 q 449 559 452 556 q 443 564 446 562 q 435 566 439 566 l 209 566 q 201 564 205 566 q 195 559 198 562 q 190 553 191 556 q 189 545 189 549 l 189 134 q 191 127 189 130 q 196 120 193 123 q 203 115 199 117 q 212 113 208 113 l 537 113 q 545 118 541 113 q 549 127 549 123 l 549 187 q 551 194 549 190 q 555 201 552 198 q 561 205 557 203 q 568 208 564 208 l 646 208 q 656 205 651 208 q 664 200 661 203 q 670 192 667 197 q 673 183 673 187 l 673 47 q 669 31 673 39 q 660 16 666 23 q 647 5 654 9 q 632 0 640 0 l 118 0 q 95 7 106 0 q 76 26 84 15 q 63 52 68 38 q 58 77 58 65 l 58 608 z "},"d":{"ha":743,"x_min":58,"x_max":681,"o":"m 681 951 l 681 57 q 674 35 681 46 q 657 17 667 24 q 635 5 647 9 q 612 0 623 0 l 119 0 q 98 5 109 0 q 78 20 87 11 q 64 40 69 28 q 58 62 58 52 l 58 625 q 63 643 58 635 q 76 659 68 651 q 93 670 84 666 q 111 674 102 674 l 479 674 q 520 667 499 674 q 557 648 541 659 l 557 958 q 560 967 557 963 q 567 974 563 971 q 576 979 571 977 q 586 981 581 981 l 650 981 q 661 978 655 981 q 671 971 666 975 q 678 962 675 967 q 681 951 681 956 m 524 562 l 292 562 q 273 553 281 562 q 264 534 264 545 l 264 140 q 273 119 264 127 q 292 111 281 111 l 524 111 q 544 119 536 111 q 552 140 552 127 l 552 534 q 544 553 552 545 q 524 562 536 562 z "},"e":{"ha":732,"x_min":58,"x_max":684,"o":"m 58 632 q 63 648 58 640 q 76 663 68 656 q 93 672 84 669 q 111 675 102 675 l 631 675 q 648 671 639 675 q 665 661 658 667 q 678 646 673 655 q 684 628 684 637 l 684 363 q 680 351 684 357 q 669 339 675 345 q 656 330 663 334 q 643 327 650 327 l 270 327 q 258 321 263 327 q 252 309 252 316 l 252 123 q 256 115 252 119 q 264 110 259 110 l 545 110 q 554 115 549 110 q 559 123 559 119 l 559 191 q 564 202 559 197 q 575 208 570 208 l 663 208 q 671 206 667 208 q 677 202 674 205 q 682 196 680 199 q 684 189 684 193 l 684 39 q 680 26 684 33 q 670 13 675 19 q 658 3 665 7 q 644 0 651 0 l 111 0 q 92 4 102 0 q 75 14 83 8 q 63 29 68 20 q 58 46 58 38 l 58 632 m 264 570 q 256 566 259 570 q 252 557 252 562 l 252 445 q 256 436 252 439 q 264 433 259 433 l 544 433 q 552 436 548 433 q 556 445 556 439 l 556 557 q 552 566 556 562 q 544 570 548 570 l 264 570 z "},"f":{"ha":454,"x_min":1,"x_max":621,"o":"m 109 564 l 26 564 q 17 566 22 564 q 9 571 12 568 q 3 578 5 574 q 1 586 1 582 l 1 656 q 3 664 1 661 q 9 670 5 667 q 16 674 12 673 q 23 675 20 675 l 109 675 l 109 943 q 114 958 109 951 q 127 969 119 964 q 145 977 136 974 q 163 979 155 979 l 585 979 q 597 977 591 979 q 609 969 604 974 q 618 959 614 964 q 621 948 621 954 l 621 819 q 620 813 621 817 q 615 807 618 810 q 608 802 612 804 q 601 800 605 800 l 517 800 q 510 802 514 800 q 503 807 506 804 q 498 813 500 810 q 496 819 496 817 l 496 871 l 302 871 l 302 675 l 406 675 q 415 674 410 675 q 425 669 420 673 q 431 662 429 666 q 434 654 434 658 l 434 590 q 431 581 434 586 q 425 572 429 576 q 417 566 422 568 q 407 564 412 564 l 302 564 l 302 544 q 300 522 302 533 q 292 501 297 511 q 280 481 286 491 q 267 460 274 471 q 254 440 260 450 q 242 420 247 430 q 234 399 237 410 q 231 376 231 388 l 231 27 q 229 18 231 23 q 224 9 228 14 q 217 2 221 4 q 209 0 213 0 l 141 0 q 130 2 136 0 q 120 7 125 4 q 112 16 115 11 q 109 26 109 20 l 109 564 z "},"g":{"ha":732,"x_min":57,"x_max":707,"o":"m 57 631 q 62 647 57 639 q 74 661 66 655 q 91 671 81 667 q 109 674 100 674 l 686 674 q 694 672 690 674 q 701 666 699 670 q 705 658 704 662 q 707 650 707 654 l 707 590 q 705 582 707 586 q 702 574 704 578 q 696 569 700 571 q 690 567 693 567 l 609 567 l 609 224 q 607 213 609 218 q 600 203 605 208 q 591 195 595 198 q 581 193 586 193 l 277 193 l 277 85 l 600 85 q 614 82 606 85 q 627 73 621 79 q 635 59 632 66 q 639 45 639 52 l 639 -259 q 636 -274 639 -266 q 628 -288 633 -282 q 615 -298 623 -294 q 601 -302 608 -302 l 102 -302 q 87 -300 95 -302 q 72 -292 79 -297 q 61 -279 65 -286 q 57 -266 57 -273 l 57 46 q 62 61 57 54 q 73 73 66 68 q 89 82 80 79 q 106 85 98 85 l 161 85 l 161 193 l 100 193 q 86 195 94 193 q 72 201 79 197 q 61 212 65 206 q 57 224 57 217 l 57 631 m 202 566 q 189 560 194 566 q 184 548 184 555 l 184 320 q 189 308 184 313 q 202 302 194 302 l 471 302 q 482 308 477 302 q 487 320 487 313 l 487 548 q 482 560 487 555 q 471 566 477 566 l 202 566 m 270 -12 q 260 -16 264 -12 q 255 -24 255 -19 l 255 -189 q 260 -197 255 -194 q 270 -201 264 -201 l 503 -201 q 515 -197 510 -201 q 519 -189 519 -194 l 519 -24 q 515 -16 519 -19 q 503 -12 510 -12 l 270 -12 z "},"h":{"ha":732,"x_min":57,"x_max":666,"o":"m 57 31 l 57 951 q 59 962 57 956 q 64 971 61 967 q 73 978 68 975 q 83 981 77 981 l 149 981 q 159 978 155 981 q 166 970 163 975 q 172 961 170 966 q 174 951 174 956 l 174 699 q 176 690 174 694 q 182 682 178 685 q 191 676 186 678 q 199 674 195 674 l 605 674 q 627 669 616 674 q 646 654 637 663 q 661 635 655 646 q 666 613 666 624 l 666 27 q 663 17 666 22 q 656 8 661 12 q 646 2 651 4 q 636 0 640 0 l 570 0 q 559 2 564 0 q 549 8 553 4 q 541 17 544 12 q 538 27 538 22 l 538 541 q 536 549 538 545 q 531 555 534 552 q 524 559 528 557 q 517 560 521 560 l 277 560 q 268 558 273 560 q 260 553 263 556 q 254 545 256 549 q 252 536 252 540 l 252 31 q 250 20 252 26 q 242 9 247 14 q 232 3 237 5 q 221 0 227 0 l 88 0 q 77 3 83 0 q 67 9 72 5 q 60 20 62 14 q 57 31 57 26 z "},"i":{"ha":305,"x_min":43,"x_max":258,"o":"m 77 674 l 157 674 q 165 672 161 674 q 172 667 170 670 q 177 659 175 663 q 179 651 179 655 l 179 460 q 182 443 179 453 q 191 421 186 433 q 203 397 197 410 q 218 372 210 384 q 233 347 225 359 q 245 324 240 335 q 254 304 251 313 q 258 290 258 296 l 258 31 q 255 20 258 26 q 248 10 252 15 q 239 3 244 5 q 229 0 235 0 l 96 0 q 83 2 91 0 q 71 9 76 4 q 61 19 65 14 q 57 31 57 24 l 57 650 q 58 658 57 654 q 63 666 60 662 q 70 672 66 670 q 77 674 73 674 m 117 766 q 88 772 102 766 q 65 788 75 779 q 50 811 56 798 q 43 838 43 825 q 50 867 43 853 q 65 890 56 880 q 88 905 75 899 q 117 911 102 911 q 144 905 130 911 q 167 890 157 899 q 182 867 176 880 q 189 838 189 853 q 182 811 189 825 q 167 788 176 798 q 144 772 157 779 q 117 766 130 766 z "},"j":{"ha":305,"x_min":-264,"x_max":258,"o":"m 224 674 q 231 672 228 674 q 238 666 235 670 q 243 658 241 662 q 244 650 244 654 l 244 -273 q 241 -285 244 -279 q 231 -295 237 -290 q 218 -302 225 -300 q 205 -304 212 -304 l -233 -304 q -244 -300 -239 -304 q -254 -289 -250 -296 q -262 -275 -259 -282 q -264 -264 -264 -269 l -264 -144 q -262 -137 -264 -141 q -258 -130 -260 -133 q -251 -125 -255 -127 q -244 -123 -247 -123 l -160 -123 q -153 -126 -156 -123 q -146 -132 -149 -129 q -142 -138 -144 -134 q -141 -146 -141 -142 l -141 -194 l 45 -194 l 45 290 q 48 304 45 296 q 57 324 52 313 q 69 347 62 335 q 83 372 76 359 q 98 397 91 384 q 110 421 104 410 q 119 443 115 433 q 122 460 122 453 l 122 651 q 124 659 122 655 q 130 667 126 663 q 136 672 133 670 q 144 674 140 674 l 224 674 m 186 766 q 157 772 171 766 q 134 788 144 779 q 119 811 125 798 q 114 838 114 825 q 119 867 114 853 q 134 890 125 880 q 157 905 144 899 q 186 911 171 911 q 214 905 201 911 q 236 890 227 899 q 252 867 245 880 q 258 838 258 853 q 252 811 258 825 q 236 788 245 798 q 214 772 227 779 q 186 766 201 766 z "},"k":{"ha":739,"x_min":57,"x_max":674,"o":"m 57 954 q 58 962 57 958 q 63 970 60 966 q 70 977 66 974 q 77 979 73 979 l 156 979 q 165 977 160 979 q 173 970 170 974 q 178 961 176 966 q 180 951 180 956 l 180 692 q 184 669 180 680 q 193 647 187 658 q 205 626 198 636 q 218 606 212 616 q 232 585 225 595 q 244 564 239 575 q 252 543 250 553 q 255 519 255 532 l 255 469 q 260 460 255 464 q 271 456 266 456 l 502 456 q 516 458 509 456 q 530 465 524 460 q 541 475 537 469 q 545 488 545 481 l 545 655 q 547 663 545 659 q 553 671 549 667 q 561 676 556 674 q 570 678 566 678 l 648 678 q 657 676 652 678 q 665 671 662 674 q 671 663 669 667 q 674 655 674 659 l 674 453 q 670 437 674 445 q 659 422 666 429 q 640 412 651 415 q 618 408 629 408 q 641 404 631 408 q 659 393 651 400 q 670 378 666 387 q 674 361 674 369 l 674 27 q 672 18 674 23 q 667 8 670 12 q 659 2 663 4 q 650 0 654 0 l 570 0 q 562 2 566 0 q 554 7 557 4 q 549 16 551 11 q 547 24 547 20 l 547 307 q 542 321 547 313 q 530 333 537 328 q 515 341 524 338 q 499 345 507 345 l 275 345 q 268 343 271 345 q 261 339 264 342 q 256 334 258 336 q 254 327 254 331 l 254 34 q 251 22 254 28 q 244 11 248 16 q 235 3 240 5 q 224 0 229 0 l 87 0 q 76 2 81 0 q 66 9 71 4 q 60 19 62 14 q 57 30 57 24 l 57 954 z "},"l":{"ha":305,"x_min":57,"x_max":258,"o":"m 77 979 l 157 979 q 165 977 161 979 q 172 972 170 975 q 177 964 175 968 q 179 956 179 960 l 179 460 q 182 443 179 453 q 191 421 186 433 q 203 397 197 410 q 218 372 210 384 q 233 347 225 359 q 245 324 240 335 q 254 304 251 313 q 258 290 258 296 l 258 31 q 255 20 258 26 q 248 10 252 15 q 239 3 244 5 q 229 0 235 0 l 96 0 q 83 2 91 0 q 71 9 76 4 q 61 19 65 14 q 57 31 57 24 l 57 955 q 58 963 57 959 q 63 970 60 967 q 70 977 66 974 q 77 979 73 979 z "},"m":{"ha":956,"x_min":57,"x_max":891,"o":"m 57 632 q 61 648 57 640 q 73 661 65 655 q 89 671 80 667 q 106 675 98 675 l 431 675 q 451 673 441 675 q 469 667 461 671 q 484 653 477 662 q 491 632 490 644 q 498 652 492 644 q 513 665 505 661 q 530 673 521 670 q 548 675 540 675 l 844 675 q 860 671 852 675 q 875 661 868 667 q 886 647 882 655 q 891 631 891 639 l 891 22 q 889 15 891 19 q 884 7 887 11 q 878 2 882 4 q 869 0 873 0 l 784 0 q 777 2 780 0 q 772 7 774 4 q 768 13 770 9 q 766 20 766 16 l 766 549 q 765 555 766 552 q 761 562 764 559 q 755 566 758 564 q 749 568 753 568 l 566 568 q 558 566 562 568 q 553 559 555 563 q 549 552 551 556 q 548 544 548 548 l 548 23 q 547 16 548 20 q 545 8 547 12 q 542 2 544 4 q 537 0 540 0 l 450 0 q 443 1 446 0 q 436 6 439 3 q 431 13 433 9 q 429 20 429 16 l 429 544 q 427 552 429 548 q 424 559 426 556 q 418 565 422 563 q 411 567 415 567 l 202 567 q 196 566 199 567 q 190 561 193 564 q 185 554 187 557 q 183 548 183 551 l 183 397 q 186 380 183 389 q 194 363 189 372 q 205 348 199 355 q 218 333 212 340 q 231 318 225 326 q 242 302 237 311 q 250 286 247 294 q 254 269 254 278 l 254 20 q 252 13 254 16 q 246 6 250 9 q 239 1 243 3 q 232 0 236 0 l 75 0 q 68 1 72 0 q 62 5 65 3 q 58 12 60 8 q 57 19 57 15 l 57 632 z "},"n":{"ha":743,"x_min":57,"x_max":680,"o":"m 57 632 q 67 665 57 655 q 106 675 77 675 l 618 675 q 644 673 633 675 q 663 667 655 671 q 673 653 670 662 q 678 632 677 644 l 680 23 q 677 10 680 15 q 674 3 675 5 q 671 1 673 1 q 667 0 669 0 l 581 0 q 574 1 578 0 q 566 6 570 3 q 561 13 563 9 q 559 20 559 16 l 559 544 q 558 557 559 552 q 555 564 557 562 q 550 566 553 566 q 541 567 547 567 l 202 567 q 191 566 194 567 q 185 564 187 566 q 183 557 183 562 q 183 548 183 553 l 183 397 q 186 380 183 389 q 194 363 189 372 q 205 348 199 355 q 218 333 212 340 q 231 318 225 326 q 242 302 237 311 q 250 286 247 294 q 254 269 254 278 l 254 20 q 252 13 254 16 q 246 6 250 9 q 239 1 243 3 q 232 0 236 0 l 75 0 q 68 1 72 0 q 62 5 65 3 q 58 12 60 8 q 57 19 57 15 l 57 632 z "},"o":{"ha":726,"x_min":58,"x_max":663,"o":"m 94 675 l 627 675 q 641 673 635 675 q 652 665 647 670 q 661 653 658 659 q 663 639 663 647 l 663 37 q 661 22 663 28 q 652 12 658 16 q 641 3 647 7 q 627 0 635 0 l 94 0 q 80 3 87 0 q 68 12 73 7 q 61 22 64 16 q 58 37 58 28 l 58 639 q 61 653 58 647 q 68 665 64 659 q 80 673 73 670 q 94 675 87 675 m 190 566 q 179 562 183 566 q 175 552 175 557 l 175 125 q 179 115 175 119 q 190 111 183 111 l 452 111 q 462 115 457 111 q 467 125 467 119 l 465 271 q 469 303 465 288 q 477 333 472 319 q 490 361 483 347 q 505 388 498 376 q 520 411 513 400 q 533 431 528 422 q 542 449 538 441 q 545 464 545 457 l 545 552 q 541 562 545 557 q 532 566 537 566 l 190 566 z "},"p":{"ha":712,"x_min":56,"x_max":651,"o":"m 56 -274 l 56 618 q 62 641 56 631 q 79 659 69 651 q 102 672 90 667 q 125 677 114 677 l 590 677 q 612 671 601 677 q 631 656 623 665 q 646 635 640 647 q 651 614 651 624 l 651 52 q 646 33 651 42 q 634 18 642 24 q 617 6 627 11 q 600 1 608 1 l 283 1 q 270 1 277 1 q 257 -4 263 0 q 247 -13 251 -8 q 243 -24 243 -18 l 243 -281 q 240 -289 243 -285 q 233 -296 237 -293 q 223 -302 228 -300 q 214 -304 218 -304 l 87 -304 q 76 -301 81 -304 q 66 -294 71 -298 q 58 -285 61 -290 q 56 -274 56 -279 m 203 111 l 505 111 q 525 119 517 111 q 533 140 533 127 l 533 537 q 525 556 533 548 q 505 564 517 564 l 203 564 q 184 556 193 564 q 176 537 176 548 l 176 140 q 184 119 176 127 q 203 111 193 111 z "},"q":{"ha":712,"x_min":56,"x_max":651,"o":"m 651 -274 q 648 -285 651 -279 q 642 -294 646 -290 q 631 -301 637 -298 q 620 -304 625 -304 l 492 -304 q 484 -302 488 -304 q 475 -296 479 -300 q 468 -289 471 -293 q 465 -281 465 -285 l 465 -24 q 461 -13 465 -18 q 451 -4 457 -8 q 437 1 445 0 q 425 1 430 1 l 107 1 q 90 6 99 1 q 73 18 80 11 q 60 33 65 24 q 56 52 56 42 l 56 614 q 61 635 56 624 q 75 656 66 647 q 95 671 84 665 q 117 677 106 677 l 582 677 q 606 672 593 677 q 629 659 618 667 q 645 641 639 651 q 651 618 651 631 l 651 -274 m 503 111 q 523 119 514 111 q 532 140 532 127 l 532 537 q 523 556 532 548 q 503 564 514 564 l 202 564 q 182 556 190 564 q 174 537 174 548 l 174 140 q 182 119 174 127 q 202 111 190 111 l 503 111 z "},"r":{"ha":583,"x_min":60,"x_max":567,"o":"m 60 623 q 64 641 60 632 q 77 657 69 650 q 95 669 85 665 q 114 674 104 674 l 519 674 q 536 670 528 674 q 551 660 544 666 q 563 646 559 654 q 567 629 567 637 l 567 500 q 566 490 567 495 q 562 479 564 484 q 555 472 559 475 q 545 469 551 469 l 465 469 q 456 471 461 469 q 448 476 452 473 q 441 483 444 479 q 439 491 439 487 l 439 555 q 433 565 439 560 q 420 570 427 570 l 201 570 q 194 568 197 570 q 189 563 191 566 q 186 556 187 560 q 184 549 184 552 l 184 456 q 187 432 184 444 q 195 409 190 420 q 208 386 201 397 q 221 363 214 374 q 235 340 228 351 q 246 318 241 330 q 254 294 251 307 q 258 270 258 282 l 258 34 q 254 22 258 28 q 246 12 251 16 q 235 3 241 7 q 222 0 229 0 l 94 0 q 81 4 87 0 q 70 14 75 8 q 62 26 65 19 q 60 39 60 33 l 60 623 z "},"s":{"ha":726,"x_min":58,"x_max":666,"o":"m 58 629 q 63 647 58 639 q 76 661 68 655 q 94 671 84 667 q 111 675 103 675 l 629 675 q 642 672 636 675 q 654 664 648 669 q 663 654 659 659 q 666 642 666 648 l 666 505 q 665 495 666 500 q 661 485 663 490 q 654 477 658 480 q 646 473 650 473 l 559 473 q 550 475 555 473 q 541 479 545 476 q 534 485 537 481 q 532 492 532 488 l 532 553 q 530 559 532 557 q 524 564 528 562 q 517 567 521 566 q 510 568 513 568 l 203 568 q 196 566 199 568 q 190 561 193 564 q 186 554 187 557 q 184 547 184 551 l 184 418 q 186 412 184 415 q 191 407 187 410 q 197 404 194 404 q 205 403 201 403 l 627 403 q 640 399 633 403 q 652 389 647 395 q 661 377 658 384 q 665 363 665 370 l 665 42 q 662 28 665 35 q 655 14 659 20 q 646 4 651 8 q 633 0 640 0 l 106 0 q 90 3 98 0 q 75 12 81 7 q 63 24 68 16 q 58 38 58 31 l 58 183 q 60 191 58 187 q 64 199 61 195 q 71 204 68 202 q 79 206 75 206 l 168 206 q 174 204 172 206 q 178 199 176 202 q 182 191 180 195 q 183 184 183 187 l 183 130 q 184 123 183 126 q 189 117 186 119 q 194 112 191 114 q 201 110 197 110 l 449 110 q 456 111 453 110 q 461 115 458 113 q 466 121 464 118 q 468 127 468 125 l 468 274 q 462 283 468 279 q 450 288 456 288 l 100 288 q 86 290 94 288 q 73 298 79 293 q 62 311 66 304 q 58 326 58 317 l 58 629 z "},"t":{"ha":468,"x_min":38,"x_max":416,"o":"m 142 875 l 210 875 q 231 867 222 875 q 239 848 239 859 l 239 674 l 387 674 q 397 671 392 674 q 407 663 403 667 q 414 652 411 658 q 416 642 416 647 l 416 499 q 414 490 416 495 q 409 482 412 486 q 401 476 406 479 q 393 473 397 473 l 239 473 l 239 127 q 240 121 239 125 q 245 113 241 117 q 252 108 248 110 q 259 106 255 106 l 332 106 q 340 104 336 106 q 348 98 345 102 q 353 90 351 95 q 355 81 355 85 l 355 28 q 349 8 355 16 q 331 0 342 0 l 142 0 q 123 8 132 0 q 115 27 115 16 l 115 563 l 60 563 q 52 564 56 563 q 45 569 49 566 q 40 576 42 572 q 38 583 38 579 l 38 655 q 39 661 38 658 q 43 667 41 665 q 48 672 45 670 q 54 674 52 674 l 115 674 l 115 848 q 123 867 115 859 q 142 875 132 875 z "},"u":{"ha":743,"x_min":60,"x_max":682,"o":"m 60 652 q 60 659 60 655 q 64 667 61 663 q 69 672 66 670 q 75 674 72 674 l 175 674 q 186 668 180 674 q 191 656 191 662 l 191 422 q 194 406 191 414 q 202 389 197 397 q 214 371 208 380 q 227 352 220 362 q 240 330 233 342 q 252 305 247 319 q 260 276 256 292 q 263 241 263 260 l 263 118 q 268 110 263 114 q 277 106 273 106 l 545 106 q 556 111 551 106 q 562 122 562 117 l 562 654 q 563 661 562 656 q 568 668 564 665 q 574 673 571 671 q 582 675 578 675 l 666 675 q 671 673 669 675 q 677 669 674 671 q 681 663 680 666 q 682 656 682 659 l 682 27 q 679 17 682 22 q 671 8 675 12 q 660 2 666 4 q 648 0 654 0 l 99 0 q 85 2 92 0 q 73 8 79 4 q 63 17 66 12 q 60 28 60 22 l 60 652 z "},"v":{"ha":685,"x_min":11,"x_max":671,"o":"m 11 651 q 12 658 11 654 q 15 665 12 662 q 21 671 18 669 q 27 674 24 674 l 106 674 q 122 667 114 674 q 133 652 130 661 l 343 137 l 551 654 q 560 669 553 662 q 574 675 567 675 l 652 675 q 660 673 656 675 q 666 667 663 670 q 670 659 669 663 q 670 651 671 655 l 419 38 q 414 26 416 33 q 407 14 411 19 q 398 4 403 8 q 387 0 393 0 l 294 0 q 281 5 288 0 q 270 18 274 11 l 11 651 z "},"w":{"ha":936,"x_min":62,"x_max":867,"o":"m 62 651 q 64 659 62 655 q 70 667 66 663 q 78 673 73 670 q 87 675 83 675 l 160 675 q 168 673 164 675 q 176 669 172 671 q 182 662 179 666 q 184 654 184 658 l 184 430 q 188 418 184 426 q 197 401 191 411 q 209 378 202 391 q 223 353 216 366 q 237 326 231 339 q 250 301 244 313 q 260 279 256 289 q 263 260 263 269 l 263 134 q 269 122 263 127 q 281 117 274 117 l 389 117 q 401 119 395 117 q 407 127 407 122 l 407 656 q 408 662 407 659 q 410 668 408 665 q 415 673 412 671 q 420 674 418 674 l 511 674 q 515 672 513 674 q 518 667 517 670 q 521 661 519 665 q 522 656 522 658 l 522 134 q 524 127 522 130 q 528 122 525 125 q 534 118 530 119 q 541 117 537 117 l 742 117 q 749 120 746 117 q 753 127 753 123 l 753 658 q 755 664 753 661 q 760 670 757 667 q 767 675 764 673 q 774 677 770 677 l 849 677 q 861 672 854 677 q 867 662 867 667 l 867 49 q 863 33 867 41 q 855 17 860 24 q 844 5 850 9 q 829 0 837 0 l 537 0 q 519 2 529 0 q 502 7 510 4 q 488 18 494 11 q 480 35 481 24 q 460 8 473 16 q 431 0 446 0 l 115 0 q 98 5 107 0 q 80 16 88 9 q 67 31 72 23 q 62 49 62 39 l 62 651 z "},"x":{"ha":685,"x_min":35,"x_max":647,"o":"m 35 658 q 37 665 35 662 q 43 671 39 669 q 52 675 47 673 q 60 677 56 677 l 136 677 q 142 675 138 677 q 149 671 145 673 q 153 665 152 669 q 155 659 155 662 l 155 604 q 158 591 155 597 q 165 581 161 585 l 338 419 l 452 529 q 458 540 456 533 q 460 552 460 547 l 460 659 q 466 669 460 665 q 477 674 472 674 l 623 674 q 629 673 625 674 q 637 671 633 673 q 643 668 640 670 q 646 662 646 666 l 646 578 q 644 562 646 570 q 636 548 642 553 l 426 338 l 635 136 q 644 123 640 130 q 647 109 647 115 l 647 23 q 646 15 647 19 q 642 7 644 11 q 635 2 639 4 q 628 0 632 0 l 549 0 q 541 2 545 0 q 534 8 537 4 q 530 17 532 12 q 528 26 528 22 l 528 68 q 523 85 528 77 q 511 100 518 94 l 343 258 l 243 160 q 235 150 239 156 q 232 137 232 144 l 232 20 q 231 13 232 16 q 226 6 229 9 q 219 1 222 3 q 213 0 216 0 l 66 0 q 56 2 61 0 q 46 8 50 4 q 39 17 42 12 q 37 26 37 22 l 37 102 q 39 117 37 110 q 47 130 42 123 q 57 143 52 137 q 68 155 62 149 l 255 340 l 58 532 q 50 540 54 536 q 43 549 46 544 q 37 558 39 553 q 35 568 35 563 l 35 658 z "},"y":{"ha":732,"x_min":58,"x_max":673,"o":"m 58 650 q 60 657 58 654 q 64 664 61 661 q 69 670 66 667 q 76 673 72 673 l 155 673 q 162 670 159 673 q 168 665 165 667 q 173 658 171 662 q 175 650 175 654 l 175 136 q 178 127 175 132 q 185 119 180 122 q 195 113 190 115 q 206 111 201 111 l 528 111 q 535 113 530 111 q 543 118 540 115 q 549 124 547 121 q 552 132 552 127 l 552 650 q 554 659 552 654 q 559 667 556 663 q 568 672 563 670 q 576 674 572 674 l 647 674 q 656 672 652 674 q 664 667 661 670 q 670 659 667 663 q 673 650 673 654 l 673 -270 q 670 -281 673 -275 q 663 -291 667 -286 q 654 -299 659 -296 q 643 -302 648 -302 l 515 -302 q 505 -300 510 -302 q 494 -293 499 -297 q 486 -283 488 -289 q 483 -273 483 -278 l 483 -26 q 480 -16 483 -20 q 473 -7 477 -11 q 463 -2 468 -4 q 453 0 458 0 l 127 0 q 104 4 117 0 q 82 16 92 8 q 65 33 72 23 q 58 53 58 42 l 58 650 z "},"z":{"ha":685,"x_min":31,"x_max":654,"o":"m 65 677 l 618 677 q 631 674 624 677 q 642 667 637 671 q 650 656 647 662 q 654 646 654 651 l 654 570 q 649 553 654 560 q 639 540 644 545 l 228 114 l 511 114 q 520 115 515 114 q 529 117 525 115 q 536 121 533 118 q 538 127 538 123 l 538 172 q 540 181 538 176 q 544 190 541 186 q 551 197 547 194 q 559 199 555 199 l 629 199 q 638 197 633 199 q 646 191 643 194 q 652 183 650 187 q 654 175 654 179 l 654 15 q 650 7 654 11 q 642 3 647 4 q 630 1 636 1 q 618 0 624 0 l 68 0 q 56 3 61 0 q 45 9 50 5 q 37 20 39 14 q 34 31 34 26 l 34 145 q 41 177 34 161 q 58 203 47 193 l 212 355 q 246 377 227 370 q 286 389 266 384 q 326 401 307 395 q 359 423 346 408 l 505 575 l 149 575 l 149 492 q 148 484 149 488 q 143 476 146 480 q 136 470 140 472 q 127 468 132 468 l 61 468 q 51 470 56 468 q 41 475 46 472 q 34 484 37 479 q 31 492 31 488 l 31 639 q 34 651 31 644 q 41 664 37 658 q 52 673 46 670 q 65 677 58 677 z "},"!":{"ha":319,"x_min":62,"x_max":273,"o":"m 84 978 l 168 978 q 176 976 172 978 q 183 971 180 974 q 188 965 186 968 q 190 959 190 962 l 190 601 q 194 585 190 595 q 203 563 198 575 q 216 537 209 551 q 231 509 224 524 q 246 481 239 495 q 260 455 254 467 q 269 435 266 444 q 273 423 273 427 l 273 201 q 270 192 273 197 q 263 184 267 187 q 254 178 259 180 q 243 175 248 175 l 104 175 q 90 177 98 175 q 77 182 83 179 q 66 191 71 186 q 62 201 62 195 l 62 958 q 64 965 62 962 q 69 971 66 968 q 76 976 72 974 q 84 978 80 978 m 168 -18 q 136 -11 151 -18 q 110 6 121 -4 q 92 31 99 16 q 85 62 85 46 q 92 95 85 80 q 110 121 99 110 q 136 138 121 132 q 168 145 151 145 q 199 138 184 145 q 226 121 214 132 q 243 95 237 110 q 250 62 250 80 q 243 31 250 46 q 226 6 237 16 q 199 -11 214 -4 q 168 -18 184 -18 z "},"\"":{"ha":414,"x_min":34,"x_max":351,"o":"m 152 598 l 99 598 q 94 600 96 598 q 90 606 91 602 q 87 612 88 609 q 85 618 85 616 l 85 728 q 83 739 85 732 q 77 753 80 745 q 68 770 73 761 q 59 789 64 780 q 50 809 54 799 q 41 827 45 819 q 36 843 38 836 q 34 854 34 850 l 34 945 q 35 954 34 949 q 39 963 37 959 q 45 970 42 967 q 52 972 49 972 l 138 972 q 147 970 142 972 q 156 964 152 968 q 163 956 160 960 q 165 945 165 951 l 165 620 q 164 613 165 617 q 161 606 163 609 q 157 600 159 602 q 152 598 155 598 m 338 598 l 285 598 q 280 600 282 598 q 276 606 278 602 q 273 612 274 609 q 271 618 271 616 l 271 728 q 269 739 271 732 q 263 753 267 745 q 254 770 259 761 q 245 789 250 780 q 235 809 240 799 q 227 827 231 819 q 222 843 224 836 q 220 854 220 850 l 220 945 q 221 954 220 949 q 225 963 222 959 q 231 970 228 967 q 237 972 235 972 l 326 972 q 334 970 330 972 q 342 964 338 968 q 349 956 346 960 q 351 945 351 951 l 351 620 q 350 613 351 617 q 347 606 349 609 q 342 600 345 602 q 338 598 340 598 z "},"#":{"ha":1072,"x_min":57,"x_max":1004,"o":"m 623 987 l 511 681 l 685 681 l 796 987 l 909 987 l 800 684 l 1004 684 l 970 582 l 762 582 l 703 403 l 918 403 l 883 307 l 666 307 l 559 0 l 446 0 l 557 307 l 378 307 l 273 0 l 157 0 l 269 304 l 57 304 l 92 403 l 302 403 l 368 585 l 142 585 l 175 681 l 400 681 l 510 987 l 623 987 m 477 585 l 412 401 l 590 401 l 654 585 l 477 585 z "},"$":{"ha":963,"x_min":64,"x_max":895,"o":"m 456 982 l 456 1043 q 456 1049 456 1046 q 458 1056 457 1053 q 462 1061 460 1059 q 468 1063 464 1063 l 502 1063 q 507 1061 505 1063 q 510 1057 509 1059 q 512 1051 511 1054 q 513 1046 513 1048 l 513 983 l 844 983 q 862 979 853 983 q 878 966 871 974 q 890 950 886 959 q 895 932 895 941 l 895 761 q 895 751 895 757 q 891 741 894 746 q 885 733 888 736 q 878 730 882 730 l 799 730 q 789 732 795 730 q 781 739 784 735 q 774 747 777 742 q 772 755 772 751 l 772 860 q 769 867 772 864 q 763 871 766 869 q 755 875 760 873 q 749 876 751 876 l 518 876 l 518 549 l 831 549 q 853 545 842 549 q 873 532 864 540 q 888 513 882 524 q 894 492 894 502 l 894 52 q 889 34 894 43 q 878 16 884 24 q 861 4 871 8 q 842 0 852 0 l 517 0 l 517 -66 q 512 -76 517 -71 q 502 -81 507 -81 l 475 -81 q 463 -75 468 -81 q 458 -62 458 -69 l 458 0 l 138 0 q 113 5 126 0 q 90 18 100 9 q 71 38 79 27 q 64 61 64 49 l 64 237 q 66 246 64 241 q 71 254 68 251 q 79 260 75 258 q 87 263 83 263 l 149 263 q 159 260 155 263 q 168 252 164 256 q 173 243 171 248 q 175 232 175 237 l 175 130 q 178 123 175 126 q 184 119 180 121 q 193 115 189 117 q 202 114 198 114 l 456 114 l 456 441 l 136 441 q 111 447 123 441 q 87 463 98 453 q 71 486 77 473 q 64 510 64 498 l 64 920 q 70 943 64 932 q 86 962 76 954 q 108 977 96 971 q 132 982 119 982 l 456 982 m 518 444 l 518 117 l 666 117 q 674 119 670 117 q 682 124 678 121 q 688 132 686 127 q 690 140 690 136 l 690 420 q 689 427 690 423 q 685 435 688 431 q 679 441 682 438 q 673 444 675 444 l 518 444 m 453 552 l 453 879 l 205 879 q 197 877 201 879 q 189 871 193 875 q 182 864 184 868 q 179 854 179 860 l 179 575 q 181 567 179 571 q 186 559 183 563 q 192 554 189 556 q 198 552 195 552 l 453 552 z "},"%":{"ha":590,"x_min":46,"x_max":571,"o":"m 233 738 q 202 745 217 738 q 176 762 187 751 q 159 788 165 773 q 153 819 153 803 q 159 850 153 836 q 176 876 165 865 q 202 894 187 887 q 233 901 217 901 q 265 894 251 901 q 290 876 279 887 q 308 850 301 865 q 315 819 315 836 q 308 788 315 803 q 290 762 301 773 q 265 745 279 751 q 233 738 251 738 m 469 46 q 438 52 453 46 q 412 70 423 58 q 395 96 401 81 q 388 127 388 110 q 395 159 388 144 q 412 184 401 174 q 438 201 423 195 q 469 208 453 208 q 500 201 486 208 q 526 184 515 195 q 544 159 537 174 q 551 127 551 144 q 544 96 551 110 q 526 70 537 81 q 500 52 515 58 q 469 46 486 46 m 465 963 q 476 975 468 970 q 492 979 484 979 l 545 979 q 555 976 551 979 q 564 968 560 972 q 570 959 568 964 q 570 949 571 954 l 387 529 q 380 503 381 517 q 380 476 378 490 q 384 449 381 463 q 391 422 387 435 q 399 398 395 410 q 406 376 403 387 q 409 358 408 366 q 407 345 410 350 l 258 34 q 249 21 254 27 q 238 10 244 15 q 224 3 232 5 q 210 0 217 0 l 79 0 q 62 4 71 0 q 50 16 54 8 q 46 37 46 24 q 53 64 46 49 l 465 963 z "},"&":{"ha":990,"x_min":53,"x_max":905,"o":"m 905 397 l 905 64 q 900 42 905 53 q 888 22 895 31 q 870 7 880 12 q 849 1 860 1 l 114 1 q 93 6 103 1 q 73 18 83 11 q 58 36 64 26 q 53 56 53 46 l 53 434 q 58 460 53 448 q 72 483 64 472 q 92 504 80 494 q 114 524 103 514 q 136 543 125 533 q 156 564 148 553 q 170 587 164 575 q 175 612 175 598 l 175 924 q 180 943 175 933 q 192 962 184 954 q 209 975 199 970 q 228 981 218 981 l 716 981 q 736 976 726 981 q 753 964 746 971 q 766 947 761 956 q 772 928 772 937 l 772 581 q 762 543 772 562 q 737 509 753 525 q 703 484 722 494 q 666 475 685 475 l 290 475 q 279 473 285 475 q 267 467 273 471 q 258 459 262 464 q 255 449 255 454 l 255 142 q 258 134 255 138 q 264 127 260 130 q 272 121 267 123 q 281 119 277 119 l 677 119 q 685 121 681 119 q 692 125 689 122 q 699 132 696 127 q 701 138 701 136 l 701 301 l 636 301 l 636 397 l 905 397 m 290 836 l 290 616 q 292 606 290 612 q 296 597 293 601 q 302 589 298 593 q 311 586 305 586 l 637 586 q 646 588 642 586 q 652 593 650 590 q 657 601 655 597 q 659 608 659 605 l 659 841 q 656 850 659 846 q 648 858 652 854 q 637 863 643 861 q 627 864 631 864 l 320 864 q 309 861 315 864 q 300 854 304 859 q 293 845 296 850 q 290 836 290 840 z "},"'":{"ha":217,"x_min":27,"x_max":159,"o":"m 145 598 l 92 598 q 88 600 91 598 q 83 606 85 602 q 80 612 81 609 q 79 618 79 616 l 79 728 q 77 739 79 732 q 71 753 75 745 q 63 770 68 761 q 54 789 58 780 q 44 809 49 799 q 36 827 39 819 q 30 843 33 836 q 27 854 27 850 l 27 945 q 29 954 27 949 q 33 963 31 959 q 39 970 35 967 q 46 972 42 972 l 133 972 q 142 970 137 972 q 151 964 146 968 q 157 956 155 960 q 159 945 159 951 l 159 620 q 158 613 159 617 q 155 606 157 609 q 151 600 153 602 q 145 598 148 598 z "},"(":{"ha":359,"x_min":56,"x_max":309,"o":"m 56 707 q 60 736 56 722 q 73 762 65 750 l 214 979 q 220 985 216 982 q 229 989 224 987 q 237 989 233 990 q 245 987 241 989 l 298 955 q 304 950 301 954 q 308 942 307 947 q 309 933 309 937 q 307 926 308 929 l 202 784 q 187 760 194 773 q 180 734 180 747 l 180 251 q 184 231 180 241 q 193 212 187 220 l 302 62 q 307 53 305 58 q 309 43 308 47 q 308 33 309 38 q 302 26 307 28 l 251 -5 q 241 -9 247 -8 q 231 -9 236 -9 q 222 -6 227 -8 q 214 0 217 -4 l 73 220 q 61 243 66 231 q 56 267 56 255 l 56 707 z "},")":{"ha":359,"x_min":53,"x_max":307,"o":"m 307 707 l 307 267 q 301 243 307 255 q 289 220 296 231 l 148 0 q 140 -6 145 -4 q 130 -9 136 -8 q 119 -9 125 -9 q 110 -5 114 -8 l 60 26 q 54 33 56 28 q 53 43 53 38 q 55 53 53 47 q 60 62 57 58 l 170 212 q 178 231 175 220 q 180 251 180 241 l 180 734 q 174 760 180 747 q 160 784 167 773 l 56 926 q 53 933 53 929 q 54 942 53 937 q 58 950 56 947 q 64 955 60 954 l 117 987 q 124 989 119 989 q 134 989 129 990 q 142 985 138 987 q 148 979 145 982 l 289 762 q 302 736 297 750 q 307 707 307 722 z "},"*":{"ha":694,"x_min":109,"x_max":582,"o":"m 298 959 q 299 965 298 962 q 301 972 300 968 q 305 977 302 975 q 311 979 308 979 l 374 979 q 381 977 378 979 q 386 972 384 975 q 389 966 388 970 q 391 959 391 963 l 391 788 l 538 836 q 546 836 541 836 q 555 836 551 837 q 564 833 560 836 q 567 827 567 831 l 581 762 q 578 750 582 757 q 567 742 574 743 l 410 701 l 513 575 q 517 567 515 571 q 518 558 518 563 q 517 549 518 553 q 513 543 515 545 l 464 507 q 456 505 460 506 q 448 505 452 505 q 439 508 444 506 q 434 514 435 510 l 346 636 l 263 524 q 255 515 260 519 q 244 509 250 511 q 233 505 239 506 q 224 507 228 505 l 179 543 q 176 549 176 545 q 175 556 175 552 q 177 564 175 560 q 180 571 179 568 l 282 697 l 123 742 q 113 750 118 743 q 110 762 109 757 l 123 823 q 128 829 125 827 q 136 833 132 831 q 144 834 140 834 q 153 833 149 834 l 298 784 l 298 959 z "},"+":{"ha":1157,"x_min":171,"x_max":979,"o":"m 528 827 l 624 827 l 624 460 l 979 460 l 979 366 l 624 366 l 624 0 l 528 0 l 528 368 l 171 368 l 171 460 l 528 460 l 528 827 z "},",":{"ha":481,"x_min":167,"x_max":313,"o":"m 240 136 q 266 133 252 136 q 290 121 279 130 q 307 98 300 113 q 313 62 313 84 l 313 -90 l 222 -90 l 282 0 q 261 -6 271 -3 q 239 -9 251 -9 q 209 -4 222 -9 q 186 12 195 1 q 172 35 176 22 q 167 61 167 49 q 173 93 167 79 q 190 117 179 107 q 214 131 201 126 q 240 136 227 136 z "},"-":{"ha":624,"x_min":64,"x_max":549,"o":"m 81 393 l 532 393 q 545 388 540 393 q 549 376 549 382 l 549 300 q 545 288 549 293 q 532 282 540 282 l 81 282 q 69 288 75 282 q 64 300 64 293 l 64 376 q 69 388 64 382 q 81 393 75 393 z "},".":{"ha":481,"x_min":164,"x_max":313,"o":"m 239 -12 q 210 -6 224 -12 q 186 9 197 0 q 170 33 176 19 q 164 62 164 46 q 170 91 164 77 q 186 115 176 104 q 210 131 197 125 q 239 137 224 137 q 269 131 255 137 q 292 115 282 125 q 308 91 302 104 q 313 62 313 77 q 308 33 313 46 q 292 9 302 19 q 269 -6 282 0 q 239 -12 255 -12 z "},"/":{"ha":549,"x_min":-37,"x_max":549,"o":"m 525 985 q 534 982 529 985 q 543 975 538 979 q 548 966 547 971 q 548 958 549 962 l 298 404 q 294 380 294 392 q 295 357 293 369 q 301 332 297 345 q 310 307 305 319 q 319 281 315 294 q 325 256 323 269 q 326 233 327 244 q 320 209 324 221 l 179 -85 q 168 -100 175 -94 q 153 -112 161 -107 q 136 -119 145 -117 q 119 -122 127 -122 l -3 -122 q -24 -117 -16 -122 q -34 -102 -31 -111 q -35 -84 -37 -94 q -30 -66 -33 -75 l 435 959 q 450 977 439 970 q 472 985 461 985 l 525 985 z "},":":{"ha":278,"x_min":62,"x_max":212,"o":"m 137 -12 q 107 -6 121 -12 q 83 9 94 0 q 68 33 73 19 q 62 62 62 46 q 68 91 62 77 q 83 115 73 104 q 107 131 94 125 q 137 137 121 137 q 165 131 152 137 q 189 115 179 125 q 205 91 199 104 q 212 62 212 77 q 205 33 212 46 q 189 9 199 19 q 165 -6 179 0 q 137 -12 152 -12 m 137 182 q 107 188 121 182 q 83 204 94 194 q 68 228 73 214 q 62 256 62 241 q 68 286 62 273 q 83 310 73 300 q 107 326 94 320 q 137 332 121 332 q 165 326 152 332 q 189 310 179 320 q 205 286 199 300 q 212 256 212 273 q 205 228 212 241 q 189 204 199 214 q 165 188 179 194 q 137 182 152 182 z "},";":{"ha":278,"x_min":62,"x_max":212,"o":"m 136 134 q 162 131 149 134 q 186 119 175 127 q 203 97 197 111 q 210 60 210 83 l 210 -91 l 119 -91 l 179 -1 q 157 -9 168 -5 q 136 -12 146 -12 q 106 -6 119 -12 q 83 10 92 0 q 68 33 73 20 q 62 58 62 46 q 69 91 62 77 q 86 114 76 104 q 110 129 96 123 q 136 134 123 134 m 137 182 q 107 187 121 182 q 83 203 94 193 q 68 227 73 213 q 62 256 62 241 q 68 285 62 271 q 83 309 73 298 q 107 325 94 319 q 137 331 121 331 q 165 325 152 331 q 189 309 179 319 q 205 285 199 298 q 212 256 212 271 q 205 227 212 241 q 189 203 199 213 q 165 187 179 193 q 137 182 152 182 z "},"<":{"ha":1157,"x_min":178,"x_max":972,"o":"m 972 785 l 972 681 l 317 414 l 972 148 l 972 42 l 178 370 l 178 460 l 972 785 z "},"=":{"ha":1157,"x_min":174,"x_max":979,"o":"m 174 595 l 979 595 l 979 502 l 174 502 l 174 595 m 174 326 l 979 326 l 979 232 l 174 232 l 174 326 z "},">":{"ha":1157,"x_min":176,"x_max":972,"o":"m 178 785 l 972 460 l 972 372 l 176 42 l 176 148 l 833 414 l 178 682 l 178 785 z "},"?":{"ha":800,"x_min":50,"x_max":747,"o":"m 351 -12 q 323 -6 336 -12 q 299 9 309 0 q 283 33 289 19 q 277 62 277 46 q 283 91 277 77 q 299 115 289 104 q 323 131 309 125 q 351 137 336 137 q 380 131 366 137 q 405 115 395 125 q 420 91 415 104 q 426 62 426 77 q 420 33 426 46 q 405 9 415 19 q 380 -6 395 0 q 351 -12 366 -12 m 50 945 q 53 958 50 951 q 61 970 56 964 q 73 978 66 975 q 84 981 79 981 l 704 981 q 718 978 711 981 q 732 970 726 975 q 743 959 739 966 q 747 945 747 952 l 747 654 q 743 638 747 646 q 734 625 739 631 q 721 614 728 618 q 705 606 713 609 l 381 506 q 373 503 377 506 q 365 496 369 500 q 359 488 361 492 q 357 480 357 484 l 357 434 q 361 419 357 426 q 370 407 365 412 l 429 350 q 437 342 433 346 q 444 333 441 338 q 450 323 448 328 q 452 313 452 319 l 452 208 q 451 197 452 203 q 448 186 450 191 q 443 177 446 180 q 435 174 439 174 l 288 174 q 276 176 282 174 q 265 182 270 178 q 257 191 260 186 q 254 202 254 197 l 254 545 q 257 559 254 552 q 265 573 260 567 q 277 584 270 579 q 290 591 283 589 l 602 686 q 612 690 608 688 q 622 694 617 692 q 630 701 627 697 q 633 709 633 705 l 633 853 q 631 860 633 857 q 626 865 629 863 q 619 869 623 868 q 612 871 616 871 l 252 871 l 252 757 q 250 747 252 753 q 243 736 247 741 q 235 728 240 731 q 225 724 231 724 l 80 724 q 69 727 75 724 q 60 734 64 730 q 53 745 56 739 q 50 755 50 750 l 50 945 z "},"@":{"ha":1389,"x_min":71,"x_max":1313,"o":"m 746 996 q 871 985 812 996 q 983 957 930 975 q 1080 913 1035 939 q 1161 855 1124 887 q 1225 786 1198 823 q 1272 707 1253 749 q 1301 622 1291 666 q 1312 532 1312 578 q 1305 436 1313 481 q 1281 349 1297 391 q 1244 272 1265 308 q 1196 206 1222 236 q 1138 153 1169 176 q 1074 114 1107 130 q 1004 89 1040 98 q 932 80 968 80 q 876 87 903 80 q 829 111 849 95 q 798 149 808 126 q 793 199 788 171 q 758 153 781 176 q 707 111 735 129 q 648 84 680 94 q 587 77 617 75 q 525 89 552 81 q 477 107 498 96 q 442 132 457 118 q 416 161 427 145 q 399 195 406 178 q 389 231 393 213 q 384 269 385 250 q 381 308 382 289 q 385 380 380 345 q 401 448 389 415 q 429 511 412 480 q 468 568 446 541 q 515 616 490 594 q 570 652 541 637 q 631 675 600 667 q 697 684 663 684 q 746 679 722 684 q 793 662 770 674 q 834 630 815 650 q 867 582 853 610 l 902 661 l 996 661 l 886 225 q 889 201 882 213 q 908 179 897 189 q 935 165 920 170 q 962 163 949 161 q 1021 182 993 170 q 1073 212 1048 194 q 1117 253 1097 231 q 1152 300 1137 275 q 1180 353 1168 326 q 1200 410 1192 381 q 1211 467 1207 438 q 1214 522 1214 495 q 1200 622 1213 576 q 1167 705 1188 667 q 1118 773 1146 743 q 1055 827 1089 803 q 984 867 1021 850 q 907 894 947 883 q 828 909 868 905 q 750 914 788 914 q 616 901 680 914 q 497 864 552 887 q 396 808 442 841 q 313 736 350 776 q 247 652 275 697 q 200 559 218 608 q 173 460 182 510 q 165 359 164 410 q 181 235 167 292 q 218 132 195 179 q 273 49 241 85 q 344 -15 305 12 q 425 -62 382 -42 q 514 -95 468 -83 q 607 -113 560 -107 q 700 -119 654 -119 q 807 -111 754 -119 q 912 -85 860 -102 q 1014 -45 964 -69 q 1111 8 1063 -22 l 1149 -43 q 1044 -113 1099 -84 q 932 -159 989 -141 q 816 -187 875 -178 q 697 -198 757 -197 q 555 -188 623 -199 q 429 -155 488 -176 q 321 -101 370 -133 q 231 -31 271 -69 q 161 52 191 7 q 110 145 130 96 q 80 246 90 194 q 72 350 71 298 q 91 507 73 434 q 138 640 109 579 q 206 751 167 701 q 294 841 245 802 q 396 909 342 880 q 508 958 450 939 q 626 986 566 977 q 746 996 686 996 m 704 610 q 659 604 681 610 q 616 583 636 597 q 578 551 595 570 q 545 509 560 532 q 517 462 529 487 q 498 410 506 437 q 488 357 491 384 q 487 305 484 331 q 490 280 488 293 q 494 254 491 267 q 501 229 496 241 q 512 206 506 217 q 528 186 518 195 q 549 170 537 176 q 577 159 562 163 q 613 153 593 155 q 664 160 640 153 q 707 181 688 167 q 743 214 727 195 q 772 257 760 233 q 795 307 785 281 q 814 362 806 334 q 827 420 822 391 q 837 476 833 449 q 832 523 841 499 q 806 566 823 547 q 762 597 788 585 q 704 610 735 609 z "},"[":{"ha":359,"x_min":65,"x_max":294,"o":"m 65 947 q 68 958 65 952 q 75 970 71 964 q 85 978 79 975 q 96 981 91 981 l 266 981 q 275 980 270 981 q 284 977 279 979 q 292 972 289 975 q 294 964 294 968 l 294 898 q 292 891 294 895 q 288 884 290 887 q 281 880 285 882 q 273 878 277 878 l 202 878 q 193 876 198 878 q 182 871 187 873 q 175 863 178 868 q 172 854 172 859 l 172 133 q 174 124 172 129 q 180 115 176 119 q 187 109 183 111 q 195 106 191 106 l 266 106 q 274 104 270 106 q 281 102 278 103 q 288 98 285 100 q 290 91 290 95 l 290 22 q 288 14 290 18 q 283 6 286 9 q 277 1 281 3 q 269 0 273 0 l 102 0 q 88 3 95 0 q 77 10 81 5 q 68 21 72 15 q 65 34 65 27 l 65 947 z "},"\\":{"ha":549,"x_min":37,"x_max":624,"o":"m 61 985 l 115 985 q 136 977 126 985 q 152 959 146 970 l 617 -66 q 623 -84 621 -75 q 622 -102 624 -94 q 612 -117 620 -111 q 590 -122 605 -122 l 468 -122 q 450 -119 458 -122 q 433 -112 441 -117 q 418 -100 425 -107 q 408 -85 411 -94 l 267 209 q 261 233 262 221 q 262 256 260 244 q 269 281 264 269 q 277 307 273 294 q 286 332 281 319 q 292 357 290 345 q 294 380 294 369 q 288 404 293 392 l 38 958 q 39 966 37 962 q 44 975 41 971 q 52 982 47 979 q 61 985 57 985 z "},"]":{"ha":359,"x_min":65,"x_max":294,"o":"m 294 947 l 294 34 q 291 21 294 27 q 282 10 288 15 q 270 3 277 5 q 258 0 263 0 l 90 0 q 82 1 85 0 q 75 6 79 3 q 70 14 72 9 q 68 22 68 18 l 68 91 q 71 98 68 95 q 77 102 73 100 q 84 104 80 103 q 92 106 88 106 l 163 106 q 172 109 167 106 q 179 115 176 111 q 184 124 182 119 q 186 133 186 129 l 186 854 q 183 863 186 859 q 176 871 180 868 q 166 876 171 873 q 156 878 161 878 l 85 878 q 78 880 81 878 q 71 884 75 882 q 66 891 68 887 q 65 898 65 895 l 65 964 q 68 972 65 968 q 75 977 71 975 q 83 980 79 979 q 92 981 88 981 l 262 981 q 273 978 267 981 q 283 970 279 975 q 291 958 288 964 q 294 947 294 952 z "},"^":{"ha":1389,"x_min":282,"x_max":1096,"o":"m 625 989 l 753 989 l 1096 613 l 974 613 l 689 897 l 404 613 l 282 613 l 625 989 z "},"_":{"ha":694,"x_min":0,"x_max":690,"o":"m 0 -229 l 690 -229 l 690 -326 l 0 -326 l 0 -229 z "},"`":{"ha":694,"x_min":191,"x_max":434,"o":"m 296 909 q 308 906 301 909 q 317 899 315 903 l 433 738 q 431 730 434 735 q 426 726 429 726 l 387 726 q 369 729 377 726 q 354 739 361 732 l 193 895 q 191 899 191 897 q 192 904 191 902 q 194 907 193 906 q 197 909 195 909 l 296 909 z "},"{":{"ha":694,"x_min":113,"x_max":582,"o":"m 579 902 q 498 896 530 905 q 449 870 467 887 q 425 831 431 853 q 418 784 418 808 l 418 543 q 412 485 418 514 q 390 430 406 456 q 349 385 374 404 q 286 361 323 366 q 348 332 323 351 q 388 289 373 313 q 409 237 403 264 q 415 180 415 209 l 415 -61 q 422 -109 415 -87 q 447 -148 429 -132 q 498 -172 465 -164 q 582 -178 530 -180 l 582 -275 q 503 -278 538 -279 q 439 -271 467 -277 q 390 -254 411 -264 q 353 -231 369 -244 q 328 -201 338 -217 q 311 -166 317 -184 q 303 -127 305 -148 q 301 -87 301 -107 l 301 156 q 299 186 301 171 q 294 216 297 201 q 283 243 290 231 q 267 267 277 256 q 243 287 256 278 q 210 301 229 296 q 167 309 191 307 q 113 309 142 311 l 113 407 q 206 418 170 406 q 264 452 243 431 q 294 501 286 473 q 302 560 302 529 l 302 800 q 304 842 302 822 q 309 881 305 863 q 321 916 313 899 q 343 947 330 933 q 377 971 357 960 q 426 989 397 982 q 492 1000 454 997 q 579 1002 530 1004 l 579 902 z "},"|":{"ha":694,"x_min":294,"x_max":396,"o":"m 396 1062 l 396 -326 l 294 -326 l 294 1062 l 396 1062 z "},"}":{"ha":694,"x_min":104,"x_max":575,"o":"m 107 902 l 107 1002 q 195 1000 157 1004 q 262 989 233 997 q 311 971 290 982 q 345 947 331 960 q 366 916 358 933 q 378 881 373 899 q 383 842 382 863 q 384 800 384 822 l 384 560 q 393 501 384 529 q 423 452 401 473 q 481 418 445 431 q 575 407 518 406 l 575 309 q 521 309 545 311 q 477 301 496 307 q 444 287 458 296 q 420 267 430 278 q 404 243 410 256 q 393 216 397 231 q 388 186 389 201 q 387 156 387 171 l 387 -87 q 384 -127 387 -107 q 376 -166 381 -148 q 360 -201 370 -184 q 334 -231 350 -217 q 298 -254 319 -244 q 248 -271 277 -264 q 184 -278 220 -277 q 104 -275 149 -279 l 104 -178 q 189 -172 156 -180 q 239 -148 221 -164 q 264 -109 258 -132 q 271 -61 271 -87 l 271 180 q 277 237 271 209 q 298 289 283 264 q 338 332 313 313 q 401 361 363 351 q 338 385 363 366 q 298 430 313 404 q 275 485 282 456 q 269 543 269 514 l 269 784 q 262 831 269 808 q 238 870 256 853 q 189 896 220 887 q 107 902 157 905 z "},"~":{"ha":1157,"x_min":121,"x_max":1034,"o":"m 121 312 l 121 415 q 180 450 149 433 q 245 482 212 468 q 313 505 278 496 q 384 514 349 514 q 435 510 408 514 q 487 498 461 506 q 539 482 513 491 q 591 464 566 473 q 642 446 617 454 q 689 430 666 437 q 734 419 712 423 q 774 415 755 415 q 844 426 810 415 q 909 453 878 437 q 972 489 941 469 q 1034 528 1004 509 l 1034 418 q 972 384 1004 401 q 909 353 941 366 q 842 330 876 339 q 774 321 808 321 q 724 326 749 321 q 674 336 699 330 q 625 352 650 343 q 576 370 601 361 q 527 388 552 380 q 477 403 502 396 q 428 414 453 410 q 377 418 403 418 q 311 408 343 418 q 246 384 278 399 q 183 350 214 369 q 121 312 152 331 z "},"":{"ha":543,"x_min":47,"x_max":496,"o":"m 225 979 l 315 979 q 326 975 321 979 q 330 964 330 971 l 330 772 l 477 772 q 484 770 480 772 q 490 765 487 768 q 494 758 492 762 q 496 751 496 754 l 496 707 q 494 699 496 703 q 490 693 492 696 q 484 688 487 690 q 477 686 480 686 l 330 686 l 330 -104 q 326 -115 330 -111 q 315 -119 321 -119 l 225 -119 q 215 -115 220 -119 q 210 -104 210 -111 l 210 688 l 60 688 q 52 689 57 688 q 47 693 47 690 l 47 765 q 52 770 47 768 q 60 772 57 772 l 210 772 l 210 964 q 215 975 210 971 q 225 979 220 979 z "},"":{"ha":543,"x_min":47,"x_max":496,"o":"m 225 979 l 315 979 q 326 975 321 979 q 330 964 330 971 l 330 673 l 477 671 q 484 670 480 671 q 490 665 487 669 q 494 659 492 662 q 496 651 496 655 l 496 606 q 494 599 496 602 q 490 593 492 595 q 484 589 487 590 q 477 587 480 587 l 330 587 l 330 278 l 479 278 q 485 276 481 278 q 490 271 488 274 q 494 265 492 269 q 495 258 495 262 l 495 212 q 494 205 495 209 q 490 199 492 202 q 485 195 488 197 q 479 194 481 194 l 330 194 l 330 -104 q 326 -115 330 -111 q 315 -119 321 -119 l 225 -119 q 215 -115 220 -119 q 210 -104 210 -110 l 210 194 l 66 194 q 54 199 60 194 q 49 210 49 205 l 49 258 q 51 265 49 262 q 56 271 53 269 q 62 276 58 274 q 69 278 65 278 l 210 278 l 210 587 l 60 587 q 52 589 57 587 q 47 593 47 590 l 47 665 q 52 670 47 669 q 60 671 57 671 l 210 671 l 210 964 q 215 975 210 971 q 225 979 220 979 z "},"":{"ha":278,"x_min":64,"x_max":212,"o":"m 138 755 q 112 759 125 755 q 88 770 99 762 q 71 793 77 779 q 64 830 64 807 l 64 982 l 155 982 l 95 892 q 117 900 107 897 q 138 903 127 903 q 169 897 156 903 q 191 880 182 890 q 206 857 201 869 q 212 831 212 844 q 205 799 212 812 q 188 776 198 785 q 164 761 178 766 q 138 755 151 755 z "},"":{"ha":278,"x_min":64,"x_max":212,"o":"m 138 982 q 164 979 151 982 q 188 968 178 977 q 205 945 198 959 q 212 909 212 930 l 212 755 l 121 755 l 180 846 q 159 838 170 841 q 137 834 148 834 q 107 841 121 834 q 84 858 94 848 q 69 881 75 868 q 64 907 64 894 q 71 939 64 925 q 88 963 77 954 q 112 977 99 972 q 138 982 125 982 z "},"":{"ha":468,"x_min":64,"x_max":400,"o":"m 138 755 q 112 759 125 755 q 88 770 99 762 q 71 793 77 779 q 64 830 64 807 l 64 982 l 155 982 l 95 892 q 117 900 107 897 q 138 903 127 903 q 169 897 156 903 q 191 880 182 890 q 206 857 201 869 q 212 831 212 844 q 205 799 212 812 q 188 776 198 785 q 164 761 178 766 q 138 755 151 755 m 327 755 q 301 759 315 755 q 277 770 288 762 q 260 793 267 779 q 254 830 254 807 l 254 982 l 345 982 l 285 892 q 306 900 296 897 q 328 903 316 903 q 358 897 345 903 q 381 880 372 890 q 395 857 391 869 q 400 831 400 844 q 394 799 400 812 q 377 776 388 785 q 353 761 366 766 q 327 755 340 755 z "},"":{"ha":468,"x_min":64,"x_max":400,"o":"m 327 982 q 353 979 340 982 q 377 968 366 977 q 394 945 388 959 q 400 909 400 930 l 400 755 l 309 755 l 370 846 q 348 838 358 841 q 327 834 338 834 q 296 841 309 834 q 273 858 282 848 q 258 881 263 868 q 254 907 254 894 q 260 939 254 925 q 277 963 267 954 q 301 977 288 972 q 327 982 315 982 m 138 982 q 164 979 151 982 q 188 968 178 977 q 205 945 198 959 q 212 909 212 930 l 212 755 l 121 755 l 180 846 q 159 838 170 841 q 137 834 148 834 q 107 841 121 834 q 84 858 94 848 q 69 881 75 868 q 64 907 64 894 q 71 939 64 925 q 88 963 77 954 q 112 977 99 972 q 138 982 125 982 z "},"":{"ha":814,"x_min":206,"x_max":609,"o":"m 407 315 q 328 330 365 315 q 264 373 292 346 q 222 437 237 400 q 206 515 206 473 q 222 594 206 557 q 264 658 237 631 q 328 701 292 685 q 407 716 365 716 q 486 701 449 716 q 549 658 522 685 q 593 594 576 631 q 609 515 609 557 q 593 437 609 473 q 549 373 576 400 q 486 330 522 346 q 407 315 449 315 z "},"":{"ha":694,"x_min":0,"x_max":692,"o":"m 0 353 q 3 361 0 357 q 9 370 5 366 q 18 375 14 373 q 27 377 23 377 l 666 377 q 675 375 670 377 q 684 370 680 373 q 690 362 688 366 q 692 354 692 358 l 692 319 q 690 311 692 315 q 684 303 688 307 q 675 298 680 300 q 666 296 670 296 l 20 296 q 13 298 16 296 q 6 304 9 301 q 1 313 3 308 q 0 321 0 317 l 0 353 z "},"":{"ha":1389,"x_min":0,"x_max":1379,"o":"m 0 353 q 3 361 0 357 q 9 370 5 366 q 18 375 14 373 q 27 377 23 377 l 1354 377 q 1362 375 1358 377 q 1371 370 1367 373 q 1377 362 1375 366 q 1379 354 1379 358 l 1379 319 q 1377 311 1379 315 q 1371 303 1375 307 q 1362 298 1367 300 q 1354 296 1358 296 l 20 296 q 13 298 16 296 q 7 304 9 301 q 2 313 4 308 q 0 321 0 317 l 0 353 z "},"":{"ha":1157,"x_min":163,"x_max":948,"o":"m 163 987 l 467 987 l 467 935 l 353 935 l 353 624 l 279 624 l 279 935 l 163 935 l 163 987 m 548 623 l 548 987 l 650 987 l 753 728 l 848 987 l 948 987 l 948 624 l 883 624 l 883 925 l 770 624 l 731 624 l 614 925 l 614 623 l 548 623 z "},"":{"ha":963,"x_min":164,"x_max":779,"o":"m 164 608 q 168 630 164 618 q 180 651 172 642 q 197 667 187 661 q 217 674 206 674 l 406 674 l 406 758 q 411 768 406 764 q 422 772 416 772 l 454 772 q 462 768 458 772 q 465 758 465 764 l 465 674 l 726 674 q 743 670 734 674 q 761 660 753 666 q 774 646 769 654 q 779 629 779 637 l 779 511 q 775 499 779 505 q 767 489 772 494 q 756 481 762 484 q 743 477 750 477 l 597 477 q 585 479 591 477 q 574 484 579 481 q 565 491 568 487 q 562 500 562 495 l 562 547 q 559 553 562 551 q 555 559 557 556 q 549 564 552 562 q 541 566 545 566 l 315 566 q 307 564 311 566 q 301 559 304 562 q 296 553 298 556 q 294 545 294 549 l 294 134 q 296 127 294 130 q 302 120 298 123 q 310 115 305 117 q 317 113 315 113 l 643 113 q 651 118 647 113 q 655 127 655 123 l 655 187 q 656 194 655 190 q 661 201 658 198 q 667 205 663 203 q 674 208 670 208 l 753 208 q 762 205 757 208 q 770 200 766 203 q 776 192 773 197 q 779 183 779 187 l 779 47 q 775 31 779 39 q 766 16 772 23 q 753 5 761 9 q 738 0 746 0 l 467 0 l 467 -92 q 463 -102 467 -98 q 453 -106 458 -106 l 422 -106 q 411 -102 416 -106 q 406 -92 406 -98 l 406 0 l 224 0 q 201 7 212 0 q 182 26 190 15 q 169 52 174 38 q 164 77 164 65 l 164 608 z "},"":{"ha":963,"x_min":15,"x_max":690,"o":"m 155 981 l 541 981 q 549 979 545 981 q 557 973 553 977 q 564 966 562 970 q 566 958 566 962 l 566 829 q 565 822 566 826 q 563 814 564 818 q 559 807 562 810 q 553 804 557 804 l 476 804 q 467 807 472 804 q 459 814 463 810 q 454 823 456 818 q 452 831 452 827 l 452 878 l 251 878 l 251 642 l 366 642 q 375 639 370 642 q 380 631 380 636 l 380 601 q 376 593 380 597 q 366 590 372 590 l 251 590 l 251 133 q 253 125 251 129 q 258 119 255 122 q 264 114 260 115 q 271 113 269 113 l 661 113 q 671 110 665 113 q 681 103 677 107 q 688 94 685 99 q 690 83 690 88 l 690 23 q 688 15 690 19 q 684 7 686 11 q 677 2 681 4 q 669 0 673 0 l 88 0 q 75 2 81 0 q 62 8 68 4 q 53 18 57 12 q 49 30 49 23 l 49 408 q 52 433 49 420 q 61 459 56 446 q 74 484 66 472 q 89 509 81 496 q 104 532 96 521 q 117 553 111 543 q 125 572 122 563 q 129 589 129 582 l 33 589 q 27 589 30 589 q 22 590 24 589 q 17 593 19 591 q 15 597 15 594 l 15 635 q 17 639 15 637 q 22 641 19 640 q 27 642 24 642 q 33 643 30 643 l 129 643 l 129 954 q 132 962 129 958 q 138 971 134 967 q 145 978 141 975 q 155 981 149 981 z "},"":{"ha":1157,"x_min":69,"x_max":1074,"o":"m 571 60 q 659 69 617 60 q 741 95 701 79 q 814 135 780 111 q 879 188 849 159 q 932 252 909 217 q 972 326 956 288 q 998 408 989 365 q 1006 495 1006 450 q 998 583 1006 540 q 972 664 989 625 q 932 738 956 703 q 879 802 909 773 q 814 855 849 831 q 741 896 780 879 q 659 922 701 913 q 571 930 617 930 q 484 922 526 930 q 403 896 442 913 q 329 855 363 879 q 264 802 294 831 q 211 738 235 773 q 171 664 187 703 q 146 583 155 625 q 137 495 137 540 q 146 408 137 450 q 171 326 155 365 q 211 252 187 288 q 264 188 235 217 q 329 135 294 159 q 403 95 363 111 q 484 69 442 79 q 571 60 526 60 m 571 -7 q 471 3 519 -7 q 376 32 422 12 q 291 79 331 52 q 216 140 251 106 q 155 214 182 174 q 109 300 127 255 q 79 394 90 345 q 69 495 69 444 q 79 596 69 547 q 109 690 90 646 q 155 776 127 735 q 216 850 182 817 q 291 912 251 884 q 376 959 331 940 q 471 988 422 978 q 571 998 519 998 q 673 988 624 998 q 767 959 722 978 q 852 912 812 940 q 927 850 892 884 q 989 776 962 817 q 1035 690 1016 735 q 1064 596 1054 646 q 1074 495 1074 547 q 1064 394 1074 444 q 1035 300 1054 345 q 989 214 1016 255 q 927 140 962 174 q 852 79 892 106 q 767 32 812 52 q 673 3 722 12 q 571 -7 624 -7 m 704 616 q 690 664 703 643 q 660 699 678 685 q 620 719 642 712 q 576 726 598 726 q 532 720 552 726 q 497 703 513 713 q 469 677 481 692 q 448 644 457 662 q 434 608 439 627 q 425 569 429 589 q 419 530 420 549 q 418 492 418 510 q 430 396 418 438 q 463 326 442 354 q 513 282 484 297 q 576 267 543 267 q 672 298 636 267 q 718 388 708 328 l 814 388 q 783 294 806 332 q 726 233 760 256 q 654 201 693 210 q 576 191 616 191 q 505 199 537 191 q 446 220 472 206 q 399 252 420 233 q 363 292 378 270 q 338 340 349 315 q 321 391 327 365 q 312 443 315 416 q 309 495 309 469 q 315 570 309 536 q 332 634 320 605 q 358 687 343 663 q 392 729 373 711 q 433 761 411 747 q 478 784 454 774 q 527 798 502 793 q 576 802 552 802 q 660 789 620 802 q 732 751 700 776 q 784 692 764 727 q 808 616 804 658 l 704 616 z "},"":{"ha":1157,"x_min":69,"x_max":1074,"o":"m 571 60 q 659 69 617 60 q 741 95 701 79 q 814 135 780 111 q 879 188 849 159 q 932 252 909 217 q 972 326 956 288 q 998 408 989 365 q 1006 495 1006 450 q 998 583 1006 540 q 972 664 989 625 q 932 738 956 703 q 879 802 909 773 q 814 855 849 831 q 741 896 780 879 q 659 922 701 913 q 571 930 617 930 q 484 922 526 930 q 403 896 442 913 q 329 855 363 879 q 264 802 294 831 q 211 738 235 773 q 171 664 187 703 q 146 583 155 625 q 137 495 137 540 q 146 408 137 450 q 171 326 155 365 q 211 252 187 288 q 264 188 235 217 q 329 135 294 159 q 403 95 363 111 q 484 69 442 79 q 571 60 526 60 m 571 -7 q 471 3 519 -7 q 376 32 422 12 q 291 79 331 52 q 216 140 251 106 q 155 214 182 174 q 109 300 127 255 q 79 394 90 345 q 69 495 69 444 q 79 596 69 547 q 109 690 90 646 q 155 776 127 735 q 216 850 182 817 q 291 912 251 884 q 376 959 331 940 q 471 988 422 978 q 571 998 519 998 q 673 988 624 998 q 767 959 722 978 q 852 912 812 940 q 927 850 892 884 q 989 776 962 817 q 1035 690 1016 735 q 1064 596 1054 646 q 1074 495 1074 547 q 1064 394 1074 444 q 1035 300 1054 345 q 989 214 1016 255 q 927 140 962 174 q 852 79 892 106 q 767 32 812 52 q 673 3 722 12 q 571 -7 624 -7 m 377 220 l 377 783 l 629 783 q 713 771 677 783 q 776 739 750 760 q 814 691 802 719 q 825 632 826 663 q 812 570 822 597 q 785 524 802 543 q 745 493 768 505 q 693 477 722 481 l 822 214 l 699 214 l 585 461 l 481 461 l 481 220 l 377 220 m 481 528 l 600 528 q 650 536 629 528 q 686 557 671 544 q 707 587 700 570 q 713 623 713 604 q 705 659 713 642 q 683 690 697 677 q 648 713 669 704 q 600 722 627 722 l 481 722 l 481 528 z "},"":{"ha":861,"x_min":11,"x_max":823,"o":"m 11 315 l 148 315 q 180 309 165 315 q 208 295 195 304 q 230 273 220 286 q 247 245 240 260 q 262 203 258 222 q 265 163 266 183 q 260 125 264 144 q 247 84 255 106 q 210 28 236 49 q 146 7 183 8 q 113 7 129 7 q 79 7 96 7 q 45 7 62 7 q 11 7 28 7 l 11 315 m 53 279 l 53 42 q 96 39 75 42 q 135 38 117 37 q 169 47 153 39 q 197 75 184 54 q 218 121 210 95 q 226 173 227 146 q 215 224 225 199 q 184 263 205 248 q 154 277 170 274 q 122 281 138 281 q 89 281 106 282 q 53 279 72 279 m 534 221 q 528 242 530 233 q 520 258 525 251 q 507 269 515 264 q 483 278 499 273 q 458 285 471 282 q 433 286 446 288 q 409 280 420 285 q 385 266 397 275 q 366 248 374 259 q 352 224 358 237 q 342 196 346 210 q 336 166 338 182 q 336 136 335 151 q 342 106 338 121 q 353 80 346 92 q 372 60 361 68 q 405 37 387 45 q 443 31 423 30 q 481 39 463 31 q 514 61 499 46 q 527 77 522 69 q 535 94 532 85 q 539 112 538 102 q 540 134 540 122 l 445 134 l 445 170 l 578 170 l 578 7 l 552 7 l 541 46 q 529 33 536 39 q 515 20 522 26 q 501 11 509 15 q 483 5 494 7 q 463 1 472 3 q 444 0 453 0 q 424 1 434 0 q 403 3 414 1 q 358 18 377 7 q 324 52 339 30 q 304 102 311 76 q 297 157 297 129 q 306 218 297 190 q 335 271 315 245 q 361 297 349 288 q 387 312 373 307 q 417 319 401 317 q 453 321 433 321 q 487 317 471 320 q 517 306 503 313 q 542 286 530 298 q 562 258 553 274 q 569 239 566 250 q 572 221 572 229 q 553 221 563 221 q 534 221 544 221 m 666 315 l 666 43 l 823 43 l 823 7 l 625 7 l 625 315 l 666 315 z "}}}
